<svg width="983" height="953" viewBox="0 0 983 953" fill="none" xmlns="http://www.w3.org/2000/svg">
<g clip-path="url(#clip0_212_128)">
<path d="M0 81C0 36.2649 36.2649 0 81 0H734C871.519 0 983 111.481 983 249V872C983 916.735 946.735 953 902 953H81C36.2649 953 0 916.735 0 872V81Z" fill="#237B4B"/>
<path d="M467.576 642.771C447.445 653.316 424.344 661.751 398.271 668.078C372.197 674.404 345.836 677.568 319.188 677.568C275.861 677.568 237.709 669.707 204.734 653.987C171.951 638.074 146.453 615.74 128.24 586.982C110.219 558.033 101.208 524.579 101.208 486.62C101.208 447.701 111.561 413.193 132.266 383.093C152.971 352.994 180.77 329.701 215.662 313.213C250.554 296.726 288.61 288.482 329.828 288.482C352.451 288.482 373.156 290.208 391.944 293.658C410.924 297.109 432.3 303.052 456.073 311.488L464.7 398.335C458.757 398.91 453.197 399.197 448.021 399.197C445.337 396.897 442.844 393.925 440.544 390.283C438.435 386.64 435.463 381.176 431.629 373.891C429.712 370.057 427.699 366.318 425.59 362.676C423.481 358.841 421.564 355.87 419.838 353.761C395.682 325.004 363.187 310.625 322.351 310.625C293.211 310.625 267.042 317.814 243.844 332.193C220.647 346.572 202.53 366.414 189.493 391.721C176.456 416.835 169.938 444.922 169.938 475.979C169.938 509.529 176.36 539.725 189.205 566.565C202.242 593.405 220.455 614.398 243.844 629.543C267.233 644.689 293.978 652.261 324.077 652.261C339.989 652.261 353.984 650.919 366.062 648.235C378.332 645.36 389.931 640.471 400.859 633.569C403.159 614.014 404.31 589.666 404.31 560.526C404.31 542.313 401.626 525.825 396.258 511.063C394.149 505.12 390.123 500.998 384.179 498.698C378.428 496.205 370.568 494.192 360.599 492.659C351.78 491.125 345.645 489.687 342.194 488.345C342.194 485.469 342.29 482.594 342.481 479.718C342.673 476.65 342.769 474.541 342.769 473.391H515.313C515.313 474.541 515.408 476.65 515.6 479.718C515.792 482.594 515.888 485.469 515.888 488.345C513.395 489.304 510.616 490.262 507.548 491.221C498.346 494.48 491.156 497.547 485.98 500.423C480.804 503.299 476.394 507.708 472.752 513.651C469.301 519.403 467.576 527.167 467.576 536.945V642.771Z" fill="#FBF6D9"/>
<path d="M541.158 375.904C541.158 360.759 540.008 349.639 537.707 342.546C535.406 335.261 532.051 330.276 527.642 327.592C523.233 324.716 516.043 321.936 506.074 319.252C504.732 318.869 501.281 317.91 495.721 316.377C490.353 314.651 484.794 312.638 479.042 310.338L479.617 295.671H642.959C674.016 295.671 701.336 297.493 724.917 301.135C748.689 304.586 769.395 313.213 787.032 327.017C804.67 340.82 813.489 361.717 813.489 389.708C813.489 436.678 778.885 466.01 709.675 477.705C729.614 478.663 748.881 482.498 767.477 489.208C786.266 495.726 801.794 505.791 814.064 519.403C826.334 532.823 832.469 549.598 832.469 569.728C832.469 593.692 825.088 613.247 810.326 628.393C795.564 643.347 777.159 654.083 755.112 660.601C733.065 666.928 710.251 670.091 686.67 670.091H479.617L479.042 655.137L489.395 652.261C500.514 649.386 509.525 646.51 516.427 643.634C523.328 640.567 529.176 636.157 533.969 630.406C538.761 624.463 541.158 616.506 541.158 606.537V375.904ZM602.986 460.163C605.67 462.655 609.217 464.764 613.626 466.489C618.036 468.023 622.158 468.79 625.992 468.79H664.239C725.588 468.79 756.262 445.497 756.262 398.91C756.262 374.179 749.265 355.87 735.269 343.984C721.466 331.906 705.074 324.429 686.094 321.553C667.115 318.677 643.821 317.239 616.214 317.239H602.986V460.163ZM602.986 591.296C602.986 604.716 605.287 617.082 609.888 628.393C614.681 639.512 622.924 645.072 634.619 645.072H681.206C695.968 645.072 709.292 642.292 721.178 636.732C733.256 630.981 742.842 622.737 749.936 612.001C757.029 601.073 760.576 588.229 760.576 573.466C760.576 547.777 752.907 528.797 737.57 516.527C722.233 504.066 704.307 496.397 683.794 493.521C663.472 490.454 638.933 488.92 610.175 488.92C606.916 491.796 604.903 495.247 604.136 499.273C603.369 503.107 602.986 508.092 602.986 514.227V591.296Z" fill="#FBF6D9"/>
<g style="mix-blend-mode:multiply" opacity="0.5">
<path d="M816 468.501C919.598 407.499 951.223 363.23 983.262 275V676C935.415 557.455 901.705 505.782 816 468.501Z" fill="url(#paint0_linear_212_128)"/>
</g>
</g>
<defs>
<linearGradient id="paint0_linear_212_128" x1="899.631" y1="386.389" x2="1016" y2="634.928" gradientUnits="userSpaceOnUse">
<stop stop-opacity="0.9"/>
<stop offset="1" stop-opacity="0"/>
</linearGradient>
<clipPath id="clip0_212_128">
<rect width="983" height="953" fill="white"/>
</clipPath>
</defs>
</svg>
