<svg width="973" height="318" viewBox="0 0 973 318" fill="none" xmlns="http://www.w3.org/2000/svg">
<g clip-path="url(#clip0_416_136)">
<path d="M36 53.5072C36 41.6291 45.6291 32 57.5072 32H230.892C267.406 32 297.007 61.6005 297.007 98.1146V263.534C297.007 275.412 287.378 285.041 275.499 285.041H57.5072C45.6291 285.041 36 275.412 36 263.534V53.5072Z" fill="#237B4B"/>
<g style="mix-blend-mode:multiply" opacity="0.5">
<path d="M255.585 156.654C281.241 141.548 289.073 130.585 297.007 108.735V208.04C285.158 178.683 276.81 165.887 255.585 156.654Z" fill="url(#paint0_linear_416_136)"/>
</g>
<path d="M166.046 162.884C166.616 164.498 166.901 165.899 166.901 167.086C166.901 168.273 166.711 169.104 166.331 169.579C165.999 170.054 165.548 170.41 164.978 170.647C164.408 170.884 163.743 171.074 162.984 171.217C162.224 171.359 161.298 171.739 160.206 172.356C158.116 173.544 157.072 176.677 157.072 181.758V198.354C156.455 199.636 155.149 201.298 153.154 203.339C151.16 205.381 148.454 207.352 145.035 209.251C136.678 213.904 127.49 216.231 117.471 216.231C107.499 216.231 99.2371 214.925 92.6844 212.314C86.1317 209.702 80.6474 206.07 76.2315 201.416C67.3521 192.062 62.9124 179.598 62.9124 164.023C62.9124 154.432 64.4319 145.908 67.4708 138.453C70.5572 130.998 74.712 124.754 79.9352 119.721C90.6189 109.37 104.009 104.194 120.106 104.194C132.974 104.194 142.589 106.521 148.952 111.174C153.985 114.878 156.502 119.555 156.502 125.206C156.502 128.719 155.481 131.545 153.439 133.681C151.493 135.723 148.952 136.744 145.818 136.744C143.064 136.744 141.117 136.388 139.978 135.676C140.215 134.156 140.334 132.281 140.334 130.049C140.334 127.817 139.835 125.657 138.838 123.567C137.889 121.431 136.464 119.745 134.565 118.51C131.288 116.326 126.35 115.234 119.75 115.234C113.15 115.234 107.499 116.089 102.798 117.798C98.145 119.508 94.2039 122.143 90.975 125.704C84.2799 133.017 80.9323 143.795 80.9323 158.04C80.9323 189.332 94.2751 204.978 120.961 204.978C127.276 204.978 132.713 204.004 137.271 202.057C138.743 201.44 139.883 200.752 140.69 199.992L140.619 179.621C140.619 176.203 138.387 173.852 133.924 172.57C132.832 172.285 131.716 172.024 130.576 171.787C129.437 171.549 128.297 171.312 127.157 171.074C126.065 170.79 125.139 170.433 124.38 170.006C122.86 169.246 122.1 167.988 122.1 166.231C122.1 164.427 122.456 163.121 123.169 162.314C124.261 162.694 126.611 162.884 130.22 162.884H166.046Z" fill="#FBF6D9"/>
<path d="M207.063 215.448L183.416 214.664H165.396C162.927 214.664 160.862 214.261 159.2 213.453C157.538 212.599 156.707 211.554 156.707 210.319C156.707 208.04 157.063 206.45 157.775 205.547C159.39 206.022 161.099 206.26 162.903 206.26C164.708 206.26 166.18 206.141 167.319 205.903C168.506 205.666 169.551 205.167 170.453 204.408C172.543 202.698 173.587 199.731 173.587 195.505V122.926C173.587 118.51 170.904 115.756 165.539 114.664C162.12 113.952 159.912 113.192 158.915 112.385C157.965 111.53 157.49 110.604 157.49 109.607C157.49 107.423 157.87 105.951 158.63 105.191C159.485 105.429 160.292 105.547 161.052 105.547C161.052 105.547 168.103 105.547 182.205 105.547C184.39 105.547 187.334 105.429 191.037 105.191C194.788 104.954 199.988 104.835 206.636 104.835C213.331 104.835 219.314 105.452 224.584 106.687C229.902 107.922 234.271 109.655 237.69 111.886C244.242 116.207 247.519 122.285 247.519 130.12C247.519 139.047 243.768 146.264 236.265 151.772C233.464 153.814 229.879 155.571 225.51 157.043C239.518 158.183 248.516 163.548 252.504 173.14C253.739 176.226 254.356 179.906 254.356 184.18C254.356 188.406 253.383 192.513 251.436 196.502C249.489 200.443 246.545 203.814 242.604 206.616C234.437 212.504 222.59 215.448 207.063 215.448ZM190.183 154.194L200.938 154.265C203.074 154.265 205.615 154.265 208.559 154.265C211.55 154.265 214.47 153.743 217.319 152.698C220.168 151.606 222.542 150.158 224.442 148.354C228.335 144.65 230.282 139.902 230.282 134.109C230.282 127.508 228.668 122.665 225.439 119.579C221.64 115.828 215.064 113.952 205.71 113.952C199.347 113.952 195.382 114.546 193.815 115.733C192.296 116.92 191.298 118.32 190.824 119.935C190.396 121.502 190.183 123.567 190.183 126.131V154.194ZM207.348 163.667C199.608 163.667 193.886 163.715 190.183 163.809V197.57C190.183 202.366 193.316 205.049 199.584 205.619C201.531 205.761 204.238 205.832 207.704 205.832C211.17 205.832 214.803 205.476 218.601 204.764C222.4 204.052 225.676 202.841 228.43 201.131C234.176 197.523 237.049 191.801 237.049 183.966C237.049 170.433 227.148 163.667 207.348 163.667Z" fill="#FBF6D9"/>
</g>
<path d="M417.317 120.754C417.727 121.915 417.932 122.922 417.932 123.776C417.932 124.63 417.795 125.227 417.522 125.569C417.283 125.91 416.959 126.166 416.549 126.337C416.139 126.508 415.661 126.644 415.115 126.747C414.568 126.849 413.903 127.122 413.117 127.566C411.615 128.42 410.864 130.673 410.864 134.327V146.261C410.42 147.183 409.481 148.378 408.047 149.846C406.612 151.314 404.666 152.731 402.208 154.097C396.198 157.443 389.591 159.117 382.386 159.117C375.216 159.117 369.274 158.178 364.562 156.3C359.85 154.422 355.906 151.809 352.731 148.463C346.345 141.736 343.153 132.773 343.153 121.574C343.153 114.676 344.246 108.547 346.431 103.186C348.65 97.8252 351.638 93.3351 355.394 89.7157C363.077 82.2719 372.706 78.55 384.281 78.55C393.535 78.55 400.449 80.2232 405.025 83.5694C408.644 86.2328 410.454 89.5961 410.454 93.6595C410.454 96.1863 409.72 98.2179 408.251 99.7545C406.851 101.223 405.025 101.957 402.771 101.957C400.791 101.957 399.391 101.701 398.571 101.189C398.742 100.096 398.827 98.7472 398.827 97.1423C398.827 95.5375 398.469 93.9839 397.752 92.4815C397.069 90.9449 396.044 89.7327 394.679 88.8449C392.323 87.2742 388.771 86.4889 384.025 86.4889C379.279 86.4889 375.216 87.1035 371.835 88.3328C368.489 89.562 365.655 91.4571 363.333 94.018C358.518 99.2764 356.111 107.027 356.111 117.271C356.111 139.773 365.706 151.024 384.896 151.024C389.437 151.024 393.347 150.324 396.625 148.924C397.683 148.48 398.503 147.985 399.083 147.439L399.032 132.79C399.032 130.332 397.427 128.642 394.218 127.72C393.432 127.515 392.63 127.327 391.81 127.156C390.991 126.986 390.171 126.815 389.352 126.644C388.567 126.439 387.901 126.183 387.354 125.876C386.262 125.33 385.715 124.425 385.715 123.161C385.715 121.864 385.971 120.925 386.484 120.344C387.269 120.617 388.959 120.754 391.554 120.754H417.317ZM474.452 151.997C475.886 152.236 476.962 152.356 477.679 152.356C478.396 152.356 479.096 152.287 479.779 152.151C480.496 151.98 481.128 151.724 481.674 151.383C482.903 150.631 483.518 149.453 483.518 147.849C483.518 146.517 483.108 145.032 482.289 143.393L477.474 131.459H445.053L439.316 146.005C438.77 147.336 438.497 148.31 438.497 148.924C438.497 149.505 438.582 149.949 438.753 150.256C438.958 150.529 439.248 150.768 439.624 150.973C440.034 151.178 440.529 151.348 441.109 151.485L443.209 152.048C445.463 152.424 446.914 152.766 447.563 153.073C448.894 153.722 449.56 154.678 449.56 155.941C449.56 156.863 449.304 157.648 448.792 158.297C448.143 158.126 447.546 158.041 446.999 158.041H426.153C421.612 158.041 419.341 156.795 419.341 154.302C419.341 153.141 419.597 152.202 420.11 151.485C421.373 151.827 422.431 151.997 423.285 151.997C424.173 151.997 424.907 151.861 425.487 151.587C426.102 151.314 426.683 150.853 427.229 150.205C428.151 149.078 429.226 146.824 430.456 143.444L455.758 82.1866C456.475 80.5476 458.506 79.4208 461.853 78.8061C462.774 78.6354 463.748 78.55 464.772 78.55C466.855 78.55 468.135 79.1134 468.613 80.2403L473.735 93.0449C483.603 116.332 489.306 129.922 490.842 133.815L495.452 145.902C496.374 148.531 497.142 150.153 497.757 150.768C498.371 151.383 499.037 151.809 499.754 152.048C500.471 152.287 501.205 152.492 501.957 152.663C502.742 152.8 503.425 152.987 504.005 153.226C505.303 153.807 505.952 154.695 505.952 155.89C505.952 156.812 505.696 157.597 505.183 158.246C504.535 158.075 503.954 157.99 503.442 157.99H479.011C477.269 157.99 475.903 157.785 474.913 157.375C473.957 156.931 473.479 156.265 473.479 155.378C473.479 153.841 473.804 152.714 474.452 151.997ZM474.503 124.186L461.084 90.9961L447.921 124.186H474.503ZM544.29 158.553L527.285 157.99H514.327C512.551 157.99 511.066 157.7 509.871 157.119C508.676 156.504 508.078 155.753 508.078 154.865C508.078 153.226 508.334 152.083 508.846 151.434C510.007 151.775 511.237 151.946 512.534 151.946C513.832 151.946 514.89 151.861 515.71 151.69C516.563 151.519 517.315 151.161 517.963 150.614C519.466 149.385 520.217 147.251 520.217 144.212V92.0205C520.217 88.8449 518.288 86.8645 514.429 86.0792C511.971 85.567 510.383 85.0206 509.666 84.4402C508.983 83.8255 508.642 83.1597 508.642 82.4426C508.642 80.8719 508.915 79.8134 509.461 79.2671C510.076 79.4378 510.656 79.5232 511.203 79.5232C511.203 79.5232 516.273 79.5232 526.414 79.5232C527.985 79.5232 530.102 79.4378 532.765 79.2671C535.463 79.0964 539.202 79.011 543.982 79.011C548.797 79.011 553.099 79.4549 556.889 80.3427C560.714 81.2305 563.855 82.4768 566.314 84.0816C571.026 87.1889 573.382 91.5595 573.382 97.1935C573.382 103.613 570.684 108.803 565.289 112.764C563.275 114.232 560.697 115.496 557.555 116.554C567.628 117.374 574.099 121.232 576.967 128.129C577.855 130.349 578.299 132.995 578.299 136.068C578.299 139.107 577.599 142.061 576.199 144.929C574.799 147.763 572.682 150.188 569.848 152.202C563.975 156.436 555.455 158.553 544.29 158.553ZM532.151 114.505L539.885 114.557C541.421 114.557 543.248 114.557 545.365 114.557C547.516 114.557 549.616 114.181 551.665 113.43C553.714 112.644 555.421 111.603 556.787 110.305C559.587 107.642 560.987 104.228 560.987 100.062C560.987 95.3155 559.826 91.8327 557.504 89.6132C554.772 86.9157 550.043 85.567 543.316 85.567C538.741 85.567 535.89 85.9938 534.763 86.8474C533.67 87.7011 532.953 88.7084 532.612 89.8693C532.304 90.9961 532.151 92.4815 532.151 94.3253V114.505ZM544.494 121.317C538.929 121.317 534.814 121.352 532.151 121.42V145.697C532.151 149.146 534.404 151.075 538.912 151.485C540.312 151.587 542.258 151.639 544.751 151.639C547.243 151.639 549.855 151.383 552.587 150.87C555.319 150.358 557.675 149.488 559.655 148.258C563.787 145.663 565.853 141.549 565.853 135.915C565.853 126.183 558.733 121.317 544.494 121.317ZM619.146 158.451C618.361 158.178 616.688 158.041 614.127 158.041H593.23C591.454 158.041 590.037 157.768 588.979 157.222C587.92 156.641 587.391 155.6 587.391 154.097C587.391 153.005 587.647 152.134 588.159 151.485C589.457 151.827 590.703 151.997 591.898 151.997C593.093 151.997 594.032 151.878 594.715 151.639C595.398 151.366 595.996 150.905 596.508 150.256C597.532 148.89 598.044 146.619 598.044 143.444V91.0473C597.942 88.6571 597.157 87.1377 595.688 86.4889C595.244 86.284 594.63 86.0962 593.844 85.9255C593.093 85.7548 592.342 85.584 591.591 85.4133C590.874 85.2084 590.259 84.9694 589.747 84.6963C588.723 84.1499 588.21 83.4329 588.21 82.5451C588.21 80.9402 588.484 79.7964 589.03 79.1134C589.815 79.3866 591.505 79.5232 594.101 79.5232H600.759L618.737 79.011L620.939 78.9598C631.456 78.9598 639.326 80.8378 644.551 84.5938C649.775 88.3157 652.387 93.5741 652.387 100.369C652.387 105.457 650.731 110.135 647.419 114.403C643.731 119.149 638.643 122.359 632.156 124.032C633.931 125.261 635.946 127.515 638.2 130.793L643.629 138.732C648.716 146.141 652.933 149.846 656.28 149.846C657.543 149.846 658.499 149.727 659.148 149.488L660.428 148.975C660.702 148.873 661.009 148.822 661.35 148.822C661.692 148.822 662.05 149.095 662.426 149.641C662.801 150.153 662.989 150.751 662.989 151.434C662.989 152.117 662.699 152.936 662.119 153.892C661.538 154.814 660.719 155.651 659.66 156.402C657.27 158.143 654.658 159.014 651.824 159.014C648.99 159.014 646.651 158.536 644.807 157.58C642.997 156.624 641.324 155.378 639.787 153.841C638.285 152.27 636.902 150.495 635.639 148.514C634.409 146.534 633.248 144.502 632.156 142.419L629.134 136.324C626.983 131.885 625.258 129.034 623.961 127.771C622.697 126.473 621.537 125.825 620.478 125.825H615.305C614.451 125.825 614.024 125.21 614.024 123.981C614.024 122.273 614.673 120.942 615.971 119.986C616.415 119.678 617.746 119.508 619.966 119.474C622.185 119.405 624.678 118.927 627.444 118.039C630.244 117.152 632.548 115.939 634.358 114.403C637.875 111.364 639.634 107.096 639.634 101.598C639.634 96.9887 638.097 93.2156 635.024 90.2791C631.541 86.9669 626.693 85.2767 620.478 85.2084C616.381 85.2084 613.649 85.8231 612.283 87.0523C610.917 88.2133 610.2 90.4156 610.132 93.6595V145.953C610.132 148.651 610.883 150.358 612.386 151.075C612.864 151.28 613.495 151.468 614.281 151.639C615.066 151.809 615.817 151.997 616.534 152.202C617.285 152.373 617.917 152.595 618.429 152.868C619.454 153.414 619.966 154.148 619.966 155.07C619.966 156.641 619.693 157.768 619.146 158.451ZM699.586 158.451C698.801 158.178 697.11 158.041 694.515 158.041H673.157C671.382 158.041 669.965 157.768 668.906 157.222C667.848 156.641 667.318 155.6 667.318 154.097C667.318 153.005 667.574 152.134 668.087 151.485C669.452 151.827 670.699 151.997 671.826 151.997C672.986 151.997 673.891 151.878 674.54 151.639C675.223 151.4 675.803 150.973 676.282 150.358C677.34 149.061 677.903 146.927 677.972 143.956V91.6107C677.972 88.9132 677.221 87.223 675.718 86.5401C675.24 86.3011 674.591 86.0962 673.772 85.9255C672.952 85.7548 672.133 85.584 671.313 85.4133C670.528 85.2084 669.862 84.9694 669.316 84.6963C668.223 84.1499 667.677 83.228 667.677 81.9305C667.677 80.6671 667.933 79.7281 668.445 79.1134C669.23 79.3866 670.921 79.5232 673.516 79.5232H694.362C696.137 79.5232 697.554 79.8134 698.613 80.3939C699.705 80.9402 700.252 81.9646 700.252 83.467C700.252 84.5938 699.979 85.4645 699.432 86.0792C698.135 85.7377 696.718 85.567 695.181 85.567C691.869 85.567 690.162 88.2645 690.059 93.6595V145.953C690.059 148.651 690.81 150.358 692.313 151.075C692.791 151.28 693.44 151.468 694.259 151.639C695.079 151.809 695.881 151.997 696.666 152.202C697.486 152.373 698.169 152.595 698.715 152.868C699.842 153.448 700.405 154.37 700.405 155.634C700.405 156.829 700.132 157.768 699.586 158.451ZM766.862 135.249C767.784 134.463 768.757 134.071 769.782 134.071C771.352 134.071 772.257 134.293 772.496 134.737C773.828 137.4 774.494 141.805 774.494 147.951C774.494 152.219 774.016 155.309 773.06 157.222C772.752 157.768 772.428 158.041 772.087 158.041H715.541C711.478 158.041 709.446 156.829 709.446 154.405C709.446 153.107 709.72 152.117 710.266 151.434C711.427 151.775 712.554 151.946 713.646 151.946C714.739 151.946 715.678 151.861 716.463 151.69C717.249 151.519 717.983 151.161 718.666 150.614C720.305 149.351 721.124 147.217 721.124 144.212V92.3278C721.124 89.3571 719.929 87.462 717.539 86.6426C716.856 86.4035 716.139 86.1987 715.388 86.0279C714.671 85.8231 713.971 85.6353 713.288 85.4645C712.639 85.2597 712.059 85.0377 711.546 84.7987C710.385 84.1841 709.805 83.3475 709.805 82.289C709.805 80.889 710.078 79.8817 710.624 79.2671C711.239 79.4378 711.854 79.5232 712.468 79.5232H764.865C768.006 79.5232 769.97 79.8134 770.755 80.3939C772.189 81.4183 772.906 83.6719 772.906 87.1547C772.906 90.501 772.616 93.2327 772.035 95.3497C771.489 97.4667 771.096 98.7301 770.857 99.1398C770.516 99.7545 769.85 100.062 768.86 100.062C767.426 100.062 766.435 99.891 765.889 99.5496C765.377 99.174 765.104 98.9008 765.07 98.7301C764.626 93.8473 763.857 90.74 762.765 89.4083C761.672 88.0425 760.375 87.1206 758.872 86.6426C757.404 86.1304 755.475 85.8743 753.085 85.8743H741.663C738.043 85.8743 735.824 86.2328 735.004 86.9499C734.219 87.6669 733.724 88.5035 733.519 89.4596C733.314 90.3815 733.212 91.5766 733.212 93.0449V114.864L736.234 114.915C743.78 114.915 750.78 114.249 757.233 112.918C757.711 113.157 758.138 113.84 758.514 114.966C758.889 116.059 759.077 117.152 759.077 118.244C759.077 120.088 758.77 121.693 758.155 123.059C755.902 123.264 753.306 123.366 750.37 123.366C747.433 123.366 741.714 122.888 733.212 121.932V145.032C733.212 147.592 733.895 149.317 735.261 150.205C736.421 150.956 738.504 151.331 741.509 151.331L749.243 151.127C756.721 150.853 761.587 149.812 763.84 148.002C765.104 146.978 765.94 145.629 766.35 143.956C766.76 142.283 766.965 140.61 766.965 138.937C766.965 137.229 766.931 136 766.862 135.249ZM847.404 142.112C847.404 149.795 846.38 155.104 844.331 158.041H788.452C785.754 158.041 783.893 157.358 782.869 155.992C782.528 155.514 782.357 154.985 782.357 154.405C782.357 153.107 782.63 152.117 783.176 151.434C784.337 151.775 785.857 151.946 787.735 151.946C791.935 151.946 794.035 149.368 794.035 144.212V91.6107C794.035 89.2547 793.044 87.6669 791.064 86.8474C790.484 86.5743 789.766 86.3182 788.913 86.0792L786.352 85.4133C784.713 85.0036 783.689 84.5085 783.279 83.928C782.903 83.3134 782.715 82.6987 782.715 82.0841C782.715 80.7866 782.989 79.7964 783.535 79.1134C784.32 79.3866 786.01 79.5232 788.606 79.5232H810.937C812.712 79.5232 814.129 79.8134 815.188 80.3939C816.246 80.9402 816.776 81.9646 816.776 83.467C816.776 84.628 816.52 85.4987 816.007 86.0792C814.71 85.7377 813.464 85.567 812.268 85.567C811.107 85.567 810.186 85.7035 809.503 85.9767C808.854 86.2157 808.273 86.6426 807.761 87.2572C806.737 88.5547 806.19 90.6888 806.122 93.6595V145.441C806.19 147.831 806.89 149.436 808.222 150.256C809.349 150.973 811.415 151.331 814.42 151.331L818.261 151.28L822.666 151.229C830.109 151.229 834.975 149.573 837.263 146.261C838.39 144.622 839.141 142.573 839.517 140.115C839.926 137.622 840.285 134.737 840.592 131.459C841.139 131.117 841.873 130.946 842.795 130.946C844.536 130.946 845.714 131.151 846.329 131.561C847.046 134.361 847.404 137.878 847.404 142.112ZM904.539 151.997C905.973 152.236 907.049 152.356 907.766 152.356C908.483 152.356 909.183 152.287 909.866 152.151C910.583 151.98 911.215 151.724 911.761 151.383C912.99 150.631 913.605 149.453 913.605 147.849C913.605 146.517 913.195 145.032 912.376 143.393L907.561 131.459H875.14L869.404 146.005C868.857 147.336 868.584 148.31 868.584 148.924C868.584 149.505 868.669 149.949 868.84 150.256C869.045 150.529 869.335 150.768 869.711 150.973C870.121 151.178 870.616 151.348 871.196 151.485L873.296 152.048C875.55 152.424 877.001 152.766 877.65 153.073C878.981 153.722 879.647 154.678 879.647 155.941C879.647 156.863 879.391 157.648 878.879 158.297C878.23 158.126 877.633 158.041 877.086 158.041H856.24C851.699 158.041 849.428 156.795 849.428 154.302C849.428 153.141 849.684 152.202 850.197 151.485C851.46 151.827 852.519 151.997 853.372 151.997C854.26 151.997 854.994 151.861 855.575 151.587C856.189 151.314 856.77 150.853 857.316 150.205C858.238 149.078 859.314 146.824 860.543 143.444L885.845 82.1866C886.562 80.5476 888.593 79.4208 891.94 78.8061C892.862 78.6354 893.835 78.55 894.859 78.55C896.942 78.55 898.222 79.1134 898.7 80.2403L903.822 93.0449C913.69 116.332 919.393 129.922 920.929 133.815L925.539 145.902C926.461 148.531 927.229 150.153 927.844 150.768C928.458 151.383 929.124 151.809 929.841 152.048C930.558 152.287 931.292 152.492 932.044 152.663C932.829 152.8 933.512 152.987 934.092 153.226C935.39 153.807 936.039 154.695 936.039 155.89C936.039 156.812 935.783 157.597 935.27 158.246C934.622 158.075 934.041 157.99 933.529 157.99H909.098C907.356 157.99 905.991 157.785 905 157.375C904.044 156.931 903.566 156.265 903.566 155.378C903.566 153.841 903.891 152.714 904.539 151.997ZM904.591 124.186L891.171 90.9961L878.008 124.186H904.591Z" fill="#0D2E0D"/>
<path d="M367.982 231.429L355.11 231.002H345.3C343.956 231.002 342.831 230.783 341.927 230.343C341.022 229.878 340.57 229.309 340.57 228.637C340.57 227.396 340.764 226.53 341.151 226.039C342.03 226.298 342.961 226.427 343.943 226.427C344.925 226.427 345.727 226.362 346.347 226.233C346.993 226.104 347.562 225.833 348.053 225.419C349.19 224.488 349.759 222.873 349.759 220.572V181.063C349.759 178.659 348.298 177.16 345.378 176.565C343.516 176.177 342.314 175.764 341.772 175.324C341.255 174.859 340.996 174.355 340.996 173.812C340.996 172.623 341.203 171.822 341.617 171.408C342.082 171.538 342.521 171.602 342.935 171.602C342.935 171.602 346.773 171.602 354.45 171.602C355.639 171.602 357.242 171.538 359.258 171.408C361.3 171.279 364.131 171.214 367.749 171.214C371.394 171.214 374.651 171.55 377.52 172.223C380.415 172.895 382.793 173.838 384.654 175.053C388.222 177.405 390.005 180.714 390.005 184.979C390.005 189.838 387.963 193.767 383.879 196.766C382.354 197.877 380.402 198.834 378.024 199.635C385.65 200.255 390.548 203.176 392.719 208.398C393.391 210.078 393.727 212.081 393.727 214.407C393.727 216.708 393.197 218.944 392.138 221.115C391.078 223.261 389.475 225.096 387.33 226.621C382.884 229.826 376.435 231.429 367.982 231.429ZM358.793 198.084L364.648 198.123C365.811 198.123 367.194 198.123 368.796 198.123C370.425 198.123 372.015 197.839 373.565 197.27C375.116 196.675 376.409 195.887 377.443 194.905C379.562 192.889 380.622 190.304 380.622 187.15C380.622 183.557 379.743 180.921 377.986 179.24C375.918 177.198 372.338 176.177 367.245 176.177C363.782 176.177 361.623 176.501 360.77 177.147C359.943 177.793 359.4 178.555 359.142 179.434C358.909 180.287 358.793 181.412 358.793 182.808V198.084ZM368.137 203.241C363.924 203.241 360.809 203.267 358.793 203.318V221.697C358.793 224.307 360.499 225.768 363.911 226.078C364.971 226.156 366.444 226.194 368.331 226.194C370.218 226.194 372.195 226.001 374.263 225.613C376.331 225.225 378.115 224.566 379.614 223.635C382.742 221.671 384.306 218.556 384.306 214.291C384.306 206.924 378.916 203.241 368.137 203.241ZM424.843 231.351C424.249 231.144 422.969 231.041 421.005 231.041H404.837C403.492 231.041 402.42 230.834 401.618 230.421C400.817 229.981 400.416 229.193 400.416 228.056C400.416 227.228 400.61 226.569 400.998 226.078C402.032 226.337 402.975 226.466 403.828 226.466C404.707 226.466 405.392 226.375 405.883 226.194C406.4 226.013 406.84 225.69 407.202 225.225C408.003 224.243 408.429 222.627 408.481 220.378V180.753C408.481 178.711 407.913 177.431 406.775 176.914C406.413 176.733 405.922 176.578 405.302 176.449C404.681 176.32 404.061 176.19 403.441 176.061C402.846 175.906 402.342 175.725 401.929 175.518C401.101 175.105 400.688 174.407 400.688 173.425C400.688 172.468 400.882 171.757 401.269 171.292C401.864 171.499 403.143 171.602 405.108 171.602H420.889C422.233 171.602 423.305 171.822 424.107 172.261C424.934 172.675 425.347 173.45 425.347 174.588C425.347 175.441 425.141 176.1 424.727 176.565C423.745 176.307 422.672 176.177 421.509 176.177C419.002 176.177 417.709 178.219 417.632 182.304V221.891C417.632 223.933 418.2 225.225 419.338 225.768C419.699 225.923 420.191 226.065 420.811 226.194C421.431 226.324 422.039 226.466 422.633 226.621C423.254 226.75 423.771 226.918 424.184 227.125C425.037 227.564 425.464 228.262 425.464 229.219C425.464 230.123 425.257 230.834 424.843 231.351ZM473.019 188.391C473.123 187.667 473.174 186.607 473.174 185.211C473.174 183.816 472.903 182.549 472.36 181.412C471.817 180.249 471.081 179.344 470.15 178.698C468.522 177.586 466.066 177.03 462.783 177.03C459.526 177.03 456.644 177.625 454.137 178.814C451.656 179.977 449.575 181.619 447.895 183.738C444.508 188.003 442.815 193.806 442.815 201.147C442.815 208.1 444.534 213.645 447.972 217.781C451.539 222.097 456.36 224.256 462.434 224.256C468.405 224.256 473.058 222.95 476.393 220.34C477.401 219.564 478.318 218.724 479.146 217.819C479.921 218.052 480.554 218.737 481.045 219.874C481.2 220.262 481.278 220.779 481.278 221.425C481.278 222.046 480.813 222.976 479.882 224.217C478.978 225.432 477.646 226.608 475.889 227.745C471.701 230.485 466.687 231.855 460.845 231.855C452.47 231.855 445.801 229.309 440.838 224.217C435.927 219.228 433.471 212.546 433.471 204.171C433.471 199.053 434.285 194.439 435.914 190.329C437.542 186.22 439.765 182.73 442.583 179.861C445.4 176.966 448.683 174.743 452.431 173.192C456.205 171.641 459.862 170.866 463.404 170.866C466.971 170.866 469.827 171.163 471.973 171.757C474.118 172.352 475.902 173.166 477.323 174.2C480.167 176.32 481.588 179.137 481.588 182.652C481.588 185.341 480.593 187.241 478.603 188.352C477.931 188.74 477.207 188.934 476.431 188.934C474.829 188.934 473.691 188.753 473.019 188.391ZM525.732 226.466C526.818 226.647 527.632 226.737 528.175 226.737C528.717 226.737 529.247 226.686 529.764 226.582C530.307 226.453 530.785 226.259 531.199 226.001C532.129 225.432 532.595 224.54 532.595 223.325C532.595 222.317 532.285 221.193 531.664 219.952L528.02 210.918H503.476L499.134 221.929C498.72 222.937 498.513 223.674 498.513 224.139C498.513 224.579 498.578 224.915 498.707 225.148C498.862 225.354 499.082 225.535 499.366 225.69C499.677 225.845 500.051 225.975 500.491 226.078L502.08 226.505C503.786 226.789 504.885 227.047 505.376 227.28C506.384 227.771 506.888 228.495 506.888 229.451C506.888 230.149 506.694 230.744 506.307 231.235C505.816 231.106 505.363 231.041 504.95 231.041H489.169C485.731 231.041 484.012 230.098 484.012 228.211C484.012 227.332 484.206 226.621 484.594 226.078C485.55 226.337 486.352 226.466 486.998 226.466C487.67 226.466 488.226 226.362 488.665 226.156C489.13 225.949 489.57 225.6 489.983 225.109C490.681 224.256 491.495 222.55 492.426 219.991L511.58 173.618C512.123 172.378 513.661 171.525 516.194 171.059C516.892 170.93 517.628 170.866 518.404 170.866C519.981 170.866 520.95 171.292 521.312 172.145L525.189 181.838C532.659 199.467 536.976 209.755 538.139 212.701L541.629 221.852C542.327 223.842 542.908 225.07 543.374 225.535C543.839 226.001 544.343 226.324 544.886 226.505C545.429 226.686 545.984 226.841 546.553 226.97C547.147 227.073 547.664 227.215 548.104 227.396C549.086 227.836 549.577 228.508 549.577 229.413C549.577 230.11 549.383 230.705 548.996 231.196C548.505 231.067 548.065 231.002 547.677 231.002H529.183C527.864 231.002 526.83 230.847 526.081 230.537C525.357 230.201 524.995 229.697 524.995 229.025C524.995 227.862 525.241 227.009 525.732 226.466ZM525.771 205.412L515.612 180.287L505.648 205.412H525.771ZM600.778 218.983C600.778 224.799 600.002 228.818 598.451 231.041H556.15C554.108 231.041 552.699 230.524 551.924 229.49C551.665 229.128 551.536 228.728 551.536 228.288C551.536 227.306 551.743 226.556 552.156 226.039C553.035 226.298 554.186 226.427 555.607 226.427C558.787 226.427 560.376 224.475 560.376 220.572V180.753C560.376 178.969 559.627 177.767 558.127 177.147C557.688 176.94 557.145 176.746 556.499 176.565L554.56 176.061C553.32 175.751 552.544 175.376 552.234 174.937C551.95 174.471 551.807 174.006 551.807 173.541C551.807 172.559 552.014 171.809 552.428 171.292C553.022 171.499 554.302 171.602 556.266 171.602H573.171C574.515 171.602 575.588 171.822 576.389 172.261C577.191 172.675 577.591 173.45 577.591 174.588C577.591 175.467 577.398 176.126 577.01 176.565C576.028 176.307 575.084 176.177 574.179 176.177C573.301 176.177 572.603 176.281 572.086 176.488C571.595 176.669 571.155 176.992 570.767 177.457C569.992 178.439 569.578 180.055 569.527 182.304V221.503C569.578 223.312 570.108 224.527 571.116 225.148C571.969 225.69 573.533 225.962 575.808 225.962L578.716 225.923L582.05 225.884C587.685 225.884 591.369 224.631 593.101 222.123C593.954 220.883 594.522 219.332 594.807 217.471C595.117 215.584 595.388 213.399 595.621 210.918C596.034 210.659 596.59 210.53 597.288 210.53C598.606 210.53 599.498 210.685 599.963 210.995C600.506 213.115 600.778 215.777 600.778 218.983ZM631.312 231.351C630.717 231.144 629.438 231.041 627.473 231.041H611.305C609.961 231.041 608.888 230.834 608.087 230.421C607.286 229.981 606.885 229.193 606.885 228.056C606.885 227.228 607.079 226.569 607.467 226.078C608.501 226.337 609.457 226.466 610.336 226.466C611.215 226.466 611.913 226.375 612.43 226.194C612.947 225.988 613.399 225.639 613.787 225.148C614.562 224.114 614.95 222.395 614.95 219.991V180.326C614.872 178.517 614.278 177.366 613.166 176.875C612.83 176.72 612.365 176.578 611.77 176.449L609.909 176.061C608.643 175.751 607.867 175.376 607.583 174.937C607.299 174.471 607.157 174.006 607.157 173.541C607.157 172.584 607.35 171.835 607.738 171.292C608.333 171.499 609.612 171.602 611.577 171.602H627.357C628.701 171.602 629.774 171.822 630.575 172.261C631.402 172.675 631.816 173.45 631.816 174.588C631.816 175.441 631.609 176.1 631.196 176.565C630.213 176.307 629.141 176.177 627.978 176.177C625.47 176.177 624.178 178.219 624.1 182.304V199.441H655.119V180.326C655.041 178.517 654.446 177.366 653.335 176.875C652.999 176.72 652.534 176.578 651.939 176.449L650.078 176.061C648.812 175.751 648.036 175.376 647.752 174.937C647.467 174.471 647.325 174.006 647.325 173.541C647.325 172.507 647.519 171.757 647.907 171.292C648.501 171.499 649.781 171.602 651.745 171.602H667.526C668.87 171.602 669.943 171.822 670.744 172.261C671.571 172.675 671.985 173.45 671.985 174.588C671.985 175.441 671.778 176.1 671.364 176.565C670.382 176.307 669.309 176.177 668.146 176.177C665.639 176.177 664.347 178.219 664.269 182.304V221.891C664.269 223.338 664.489 224.295 664.928 224.76C665.574 225.458 666.376 225.91 667.332 226.117C668.288 226.298 669.077 226.466 669.697 226.621C670.318 226.75 670.834 226.918 671.248 227.125C672.075 227.539 672.489 228.236 672.489 229.219C672.489 230.123 672.282 230.834 671.868 231.351C671.274 231.144 669.994 231.041 668.03 231.041H651.862C650.518 231.041 649.445 230.834 648.643 230.421C647.842 229.981 647.442 229.193 647.442 228.056C647.442 227.228 647.635 226.569 648.023 226.078C649.005 226.337 649.923 226.466 650.776 226.466C651.629 226.466 652.288 226.375 652.753 226.194C653.219 226.013 653.619 225.69 653.955 225.225C654.679 224.269 655.067 222.653 655.119 220.378V204.792H624.1V221.891C624.1 223.933 624.669 225.225 625.806 225.768C626.168 225.923 626.659 226.065 627.28 226.194C627.9 226.324 628.507 226.466 629.102 226.621C629.722 226.75 630.239 226.918 630.653 227.125C631.506 227.564 631.932 228.262 631.932 229.219C631.932 230.123 631.726 230.834 631.312 231.351ZM687.553 224.139C685.097 221.684 683.172 218.724 681.776 215.26C680.406 211.771 679.721 208.087 679.721 204.21C679.721 200.307 680.108 196.869 680.884 193.897C681.659 190.924 682.732 188.236 684.102 185.832C685.472 183.402 687.1 181.257 688.987 179.396C690.874 177.534 692.929 175.971 695.152 174.704C699.65 172.145 704.522 170.866 709.77 170.866C717.731 170.866 724.219 173.399 729.234 178.465C734.481 183.738 737.105 190.678 737.105 199.286C737.105 205.774 735.644 211.603 732.723 216.773C730.061 221.477 726.39 225.173 721.712 227.862C717.214 230.472 712.678 231.778 708.102 231.778C703.553 231.778 699.598 231.119 696.238 229.8C692.903 228.456 690.008 226.569 687.553 224.139ZM694.067 183.583C692.542 185.728 691.417 188.326 690.693 191.376C689.97 194.426 689.608 197.709 689.608 201.225C689.608 204.714 689.944 207.919 690.616 210.84C691.288 213.735 692.361 216.281 693.834 218.479C697.039 223.261 701.795 225.652 708.102 225.652C714.461 225.652 719.282 223.571 722.565 219.409C725.718 215.351 727.295 209.574 727.295 202.078C727.295 190.575 723.883 182.859 717.059 178.93C714.629 177.56 711.747 176.875 708.413 176.875C705.078 176.875 702.235 177.457 699.883 178.62C697.53 179.783 695.592 181.438 694.067 183.583Z" fill="#805C12"/>
<path d="M788.122 225.52C789.195 225.698 790 225.788 790.536 225.788C791.073 225.788 791.596 225.737 792.107 225.635C792.644 225.507 793.116 225.315 793.525 225.06C794.445 224.498 794.904 223.617 794.904 222.416C794.904 221.42 794.598 220.309 793.985 219.082L790.383 210.155H766.129L761.837 221.037C761.428 222.033 761.224 222.761 761.224 223.221C761.224 223.655 761.288 223.987 761.416 224.217C761.569 224.421 761.786 224.6 762.067 224.753C762.374 224.907 762.744 225.034 763.178 225.136L764.749 225.558C766.435 225.839 767.521 226.094 768.006 226.324C769.002 226.81 769.5 227.525 769.5 228.47C769.5 229.16 769.309 229.747 768.926 230.233C768.44 230.105 767.993 230.041 767.585 230.041H751.99C748.592 230.041 746.894 229.109 746.894 227.244C746.894 226.375 747.085 225.673 747.468 225.136C748.413 225.392 749.205 225.52 749.844 225.52C750.508 225.52 751.057 225.417 751.492 225.213C751.951 225.009 752.386 224.664 752.794 224.179C753.484 223.336 754.289 221.65 755.208 219.121L774.137 173.294C774.673 172.068 776.193 171.225 778.696 170.765C779.386 170.637 780.114 170.573 780.881 170.573C782.439 170.573 783.397 170.995 783.754 171.838L787.586 181.417C794.968 198.838 799.234 209.005 800.384 211.917L803.832 220.96C804.522 222.927 805.097 224.14 805.556 224.6C806.016 225.06 806.514 225.379 807.051 225.558C807.587 225.737 808.136 225.89 808.698 226.018C809.286 226.12 809.797 226.26 810.231 226.439C811.202 226.873 811.687 227.538 811.687 228.432C811.687 229.121 811.496 229.709 811.112 230.194C810.627 230.067 810.193 230.003 809.81 230.003H791.533C790.23 230.003 789.208 229.849 788.467 229.543C787.752 229.211 787.394 228.713 787.394 228.049C787.394 226.899 787.637 226.056 788.122 225.52ZM788.161 204.714L778.122 179.884L768.274 204.714H788.161ZM838.567 230.424L827.647 230.003H817.761C816.433 230.003 815.322 229.786 814.428 229.351C813.534 228.892 813.086 228.33 813.086 227.665C813.086 226.439 813.278 225.584 813.661 225.098C814.581 225.354 815.513 225.481 816.458 225.481C817.404 225.481 818.195 225.417 818.834 225.29C819.498 225.162 820.086 224.894 820.597 224.485C821.772 223.565 822.359 221.969 822.359 219.696V180.651C822.359 178.275 820.878 176.794 817.914 176.206C816.075 175.823 814.875 175.414 814.313 174.98C813.776 174.52 813.508 174.022 813.508 173.486C813.508 172.31 813.712 171.519 814.121 171.11C814.581 171.238 815.002 171.301 815.385 171.301C815.385 171.301 819.255 171.301 826.995 171.301C827.583 171.301 828.362 171.276 829.333 171.225C829.333 171.225 830.418 171.161 832.59 171.033C835.783 170.88 839.052 170.803 842.399 170.803C845.771 170.803 849.04 171.212 852.208 172.029C855.375 172.821 858.109 173.907 860.408 175.286C862.732 176.666 864.661 178.275 866.193 180.114C867.752 181.928 869.003 183.857 869.949 185.9C871.634 189.655 872.477 193.87 872.477 198.545C872.477 207.025 870.281 214.076 865.887 219.696C862.438 224.115 857.368 227.231 850.675 229.045C847.201 229.964 843.165 230.424 838.567 230.424ZM831.402 220.807C831.402 222.723 832.002 223.961 833.203 224.523C834.225 224.983 836.664 225.213 840.521 225.213C844.404 225.213 847.853 224.574 850.867 223.297C853.881 222.02 856.282 220.296 858.07 218.125C861.289 214.216 862.898 208.711 862.898 201.61C862.898 189.425 858.594 181.468 849.985 177.739C846.869 176.385 843.025 175.708 838.452 175.708C835.412 175.708 833.56 176.014 832.896 176.628C832.232 177.215 831.811 177.956 831.632 178.85C831.479 179.718 831.402 180.893 831.402 182.375V220.807ZM934.8 176.206C934.264 175.951 933.523 175.823 932.578 175.823C931.633 175.823 930.918 176.027 930.432 176.436C929.972 176.819 929.538 177.368 929.129 178.084C928.721 178.799 928.325 179.655 927.942 180.651L912.117 223.604C910.405 228.381 907.557 230.769 903.572 230.769C902.321 230.769 901.554 230.411 901.273 229.696L882.383 181.609C882.179 181.098 881.987 180.549 881.808 179.961C881.629 179.348 881.425 178.76 881.195 178.198C880.633 176.896 879.854 176.091 878.858 175.785C878.27 175.58 877.747 175.414 877.287 175.286C876.853 175.133 876.495 174.967 876.214 174.788C875.627 174.405 875.333 173.92 875.333 173.332C875.333 172.413 875.537 171.634 875.946 170.995C876.533 171.199 877.542 171.301 878.973 171.301H894.836C896.547 171.301 897.71 171.416 898.323 171.646C899.498 172.106 900.085 172.975 900.085 174.252C900.085 175.12 899.894 175.772 899.511 176.206C898.949 175.951 897.837 175.823 896.177 175.823C893.163 175.823 891.656 177.075 891.656 179.578C891.656 179.884 891.745 180.331 891.924 180.919L892.384 182.26C892.511 182.592 892.626 182.886 892.729 183.141L906.484 220.998L920.7 180.344C920.853 179.782 920.93 179.284 920.93 178.85C920.93 178.39 920.828 178.007 920.623 177.7C920.419 177.368 920.151 177.087 919.818 176.857C919.461 176.602 918.822 176.385 917.903 176.206C916.983 176.002 916.217 175.823 915.604 175.67C915.016 175.516 914.518 175.325 914.109 175.095C913.292 174.635 912.858 173.869 912.807 172.796C912.807 172.081 912.934 171.48 913.19 170.995C913.777 171.199 915.042 171.301 916.983 171.301H930.279C933.702 171.301 935.413 172.285 935.413 174.252C935.413 175.095 935.209 175.746 934.8 176.206Z" fill="#482C13"/>
<path d="M349.95 285.189L345.73 285.026H341.909C341.396 285.026 340.966 284.942 340.621 284.774C340.275 284.597 340.102 284.38 340.102 284.123C340.102 283.649 340.177 283.318 340.325 283.131C340.68 283.229 341.04 283.279 341.406 283.279C341.771 283.279 342.077 283.254 342.324 283.205C342.58 283.155 342.807 283.052 343.005 282.894C343.459 282.538 343.686 281.921 343.686 281.043V265.953C343.686 265.035 343.113 264.463 341.968 264.235C341.258 264.087 340.794 263.929 340.576 263.762C340.369 263.584 340.265 263.391 340.265 263.184C340.265 262.73 340.344 262.424 340.502 262.266C340.68 262.315 340.843 262.34 340.991 262.34C340.991 262.34 342.487 262.34 345.478 262.34C345.705 262.34 346.006 262.33 346.381 262.31C346.381 262.31 346.801 262.286 347.64 262.236C348.874 262.177 350.137 262.148 351.431 262.148C352.734 262.148 353.998 262.305 355.222 262.621C356.446 262.927 357.502 263.347 358.391 263.88C359.289 264.413 360.034 265.035 360.627 265.746C361.229 266.447 361.713 267.192 362.078 267.982C362.729 269.433 363.055 271.062 363.055 272.869C363.055 276.146 362.206 278.871 360.508 281.043C359.175 282.751 357.216 283.955 354.629 284.656C353.287 285.011 351.727 285.189 349.95 285.189ZM347.181 281.472C347.181 282.213 347.413 282.691 347.877 282.909C348.272 283.086 349.214 283.175 350.705 283.175C352.206 283.175 353.538 282.928 354.703 282.435C355.868 281.941 356.796 281.275 357.487 280.436C358.731 278.925 359.353 276.798 359.353 274.053C359.353 269.344 357.69 266.269 354.363 264.828C353.158 264.305 351.673 264.043 349.906 264.043C348.731 264.043 348.015 264.161 347.758 264.398C347.502 264.625 347.339 264.912 347.27 265.257C347.21 265.593 347.181 266.047 347.181 266.62V281.472ZM378.908 285.159C378.681 285.081 378.192 285.041 377.442 285.041H371.267C370.753 285.041 370.344 284.962 370.038 284.804C369.732 284.636 369.579 284.335 369.579 283.901C369.579 283.585 369.653 283.333 369.801 283.146C370.196 283.244 370.556 283.294 370.882 283.294C371.217 283.294 371.479 283.259 371.666 283.19C371.864 283.121 372.032 282.997 372.17 282.82C372.476 282.445 372.639 281.828 372.659 280.969V265.835C372.659 265.055 372.441 264.566 372.007 264.369C371.869 264.3 371.681 264.24 371.444 264.191C371.207 264.142 370.97 264.092 370.734 264.043C370.507 263.984 370.314 263.915 370.156 263.836C369.84 263.678 369.682 263.411 369.682 263.036C369.682 262.671 369.756 262.399 369.904 262.222C370.131 262.301 370.62 262.34 371.37 262.34H377.397C377.911 262.34 378.32 262.424 378.626 262.592C378.942 262.75 379.1 263.046 379.1 263.48C379.1 263.806 379.021 264.058 378.863 264.235C378.488 264.137 378.078 264.087 377.634 264.087C376.677 264.087 376.183 264.867 376.153 266.427V281.546C376.153 282.326 376.371 282.82 376.805 283.027C376.943 283.086 377.131 283.141 377.368 283.19C377.605 283.239 377.837 283.294 378.064 283.353C378.301 283.402 378.498 283.466 378.656 283.545C378.982 283.713 379.145 283.98 379.145 284.345C379.145 284.691 379.066 284.962 378.908 285.159ZM395.027 285.159C394.8 285.081 394.316 285.041 393.576 285.041H387.534C387.02 285.041 386.611 284.962 386.305 284.804C385.999 284.636 385.846 284.335 385.846 283.901C385.846 283.585 385.92 283.333 386.068 283.146C386.443 283.244 386.803 283.294 387.149 283.294C387.494 283.294 387.766 283.259 387.963 283.19C388.161 283.111 388.333 282.978 388.482 282.79C388.778 282.395 388.926 281.739 388.926 280.821V265.672C388.896 264.981 388.669 264.542 388.245 264.354C388.116 264.295 387.939 264.24 387.711 264.191C387.494 264.142 387.277 264.092 387.06 264.043C386.853 263.984 386.675 263.915 386.527 263.836C386.231 263.678 386.083 263.47 386.083 263.214C386.083 262.75 386.162 262.419 386.32 262.222C386.547 262.301 387.035 262.34 387.786 262.34H389.711L394.908 262.192L395.545 262.177C398.586 262.177 400.861 262.72 402.372 263.806C403.882 264.882 404.637 266.402 404.637 268.367C404.637 269.838 404.158 271.19 403.201 272.424C402.135 273.797 400.664 274.725 398.788 275.208C399.301 275.564 399.884 276.215 400.535 277.163L402.105 279.458C403.576 281.601 404.795 282.672 405.763 282.672C406.128 282.672 406.404 282.637 406.592 282.568L406.962 282.42C407.041 282.39 407.13 282.376 407.229 282.376C407.327 282.376 407.431 282.455 407.54 282.612C407.648 282.761 407.703 282.933 407.703 283.131C407.703 283.328 407.619 283.565 407.451 283.842C407.283 284.108 407.046 284.35 406.74 284.567C406.049 285.071 405.294 285.322 404.474 285.322C403.655 285.322 402.979 285.184 402.446 284.908C401.922 284.631 401.439 284.271 400.994 283.827C400.56 283.373 400.16 282.859 399.795 282.287C399.44 281.714 399.104 281.127 398.788 280.525L397.914 278.762C397.292 277.479 396.794 276.655 396.419 276.289C396.053 275.914 395.718 275.727 395.412 275.727H393.916C393.669 275.727 393.546 275.549 393.546 275.194C393.546 274.7 393.733 274.315 394.109 274.039C394.237 273.95 394.622 273.9 395.264 273.89C395.905 273.871 396.626 273.732 397.426 273.476C398.235 273.219 398.902 272.869 399.425 272.424C400.442 271.546 400.95 270.312 400.95 268.722C400.95 267.39 400.506 266.299 399.617 265.45C398.61 264.492 397.208 264.003 395.412 263.984C394.227 263.984 393.437 264.161 393.042 264.517C392.648 264.852 392.44 265.489 392.42 266.427V281.546C392.42 282.326 392.638 282.82 393.072 283.027C393.21 283.086 393.393 283.141 393.62 283.19C393.847 283.239 394.064 283.294 394.272 283.353C394.489 283.402 394.671 283.466 394.819 283.545C395.116 283.703 395.264 283.916 395.264 284.182C395.264 284.636 395.185 284.962 395.027 285.159ZM429.123 278.451C429.39 278.224 429.671 278.111 429.967 278.111C430.421 278.111 430.683 278.175 430.752 278.303C431.137 279.073 431.329 280.347 431.329 282.124C431.329 283.358 431.191 284.251 430.915 284.804C430.826 284.962 430.732 285.041 430.633 285.041H414.285C413.11 285.041 412.523 284.691 412.523 283.99C412.523 283.614 412.602 283.328 412.76 283.131C413.096 283.229 413.421 283.279 413.737 283.279C414.053 283.279 414.325 283.254 414.552 283.205C414.779 283.155 414.991 283.052 415.188 282.894C415.662 282.529 415.899 281.912 415.899 281.043V266.042C415.899 265.183 415.554 264.635 414.863 264.398C414.665 264.329 414.458 264.27 414.241 264.221C414.033 264.161 413.831 264.107 413.634 264.058C413.446 263.999 413.278 263.934 413.13 263.865C412.794 263.688 412.627 263.446 412.627 263.14C412.627 262.735 412.706 262.444 412.864 262.266C413.041 262.315 413.219 262.34 413.397 262.34H428.545C429.454 262.34 430.021 262.424 430.248 262.592C430.663 262.888 430.87 263.539 430.87 264.546C430.87 265.514 430.786 266.304 430.619 266.916C430.461 267.528 430.347 267.893 430.278 268.012C430.179 268.189 429.987 268.278 429.7 268.278C429.286 268.278 429 268.229 428.842 268.13C428.694 268.021 428.615 267.942 428.605 267.893C428.476 266.481 428.254 265.583 427.938 265.198C427.622 264.803 427.247 264.537 426.813 264.398C426.388 264.25 425.831 264.176 425.14 264.176H421.837C420.791 264.176 420.149 264.28 419.912 264.487C419.685 264.695 419.542 264.936 419.483 265.213C419.424 265.479 419.394 265.825 419.394 266.249V272.558L420.268 272.572C422.449 272.572 424.473 272.38 426.339 271.995C426.477 272.064 426.601 272.262 426.709 272.587C426.818 272.903 426.872 273.219 426.872 273.535C426.872 274.068 426.783 274.532 426.606 274.927C425.954 274.986 425.204 275.016 424.355 275.016C423.506 275.016 421.852 274.878 419.394 274.601V281.28C419.394 282.02 419.591 282.519 419.986 282.775C420.322 282.993 420.924 283.101 421.793 283.101L424.029 283.042C426.191 282.963 427.598 282.662 428.249 282.139C428.615 281.842 428.856 281.452 428.975 280.969C429.093 280.485 429.153 280.001 429.153 279.518C429.153 279.024 429.143 278.669 429.123 278.451ZM446.945 285.159C446.718 285.081 446.229 285.041 445.479 285.041H439.304C438.791 285.041 438.381 284.962 438.075 284.804C437.769 284.636 437.616 284.335 437.616 283.901C437.616 283.585 437.69 283.333 437.838 283.146C438.233 283.244 438.593 283.294 438.919 283.294C439.255 283.294 439.516 283.259 439.704 283.19C439.901 283.121 440.069 282.997 440.207 282.82C440.513 282.445 440.676 281.828 440.696 280.969V265.835C440.696 265.055 440.479 264.566 440.044 264.369C439.906 264.3 439.719 264.24 439.482 264.191C439.245 264.142 439.008 264.092 438.771 264.043C438.544 263.984 438.351 263.915 438.193 263.836C437.877 263.678 437.719 263.411 437.719 263.036C437.719 262.671 437.793 262.399 437.942 262.222C438.169 262.301 438.657 262.34 439.408 262.34H445.435C445.948 262.34 446.358 262.424 446.664 262.592C446.98 262.75 447.137 263.046 447.137 263.48C447.137 263.806 447.058 264.058 446.901 264.235C446.525 264.137 446.116 264.087 445.671 264.087C444.714 264.087 444.22 264.867 444.191 266.427V281.546C444.191 282.326 444.408 282.82 444.842 283.027C444.98 283.086 445.168 283.141 445.405 283.19C445.642 283.239 445.874 283.294 446.101 283.353C446.338 283.402 446.535 283.466 446.693 283.545C447.019 283.713 447.182 283.98 447.182 284.345C447.182 284.691 447.103 284.962 446.945 285.159ZM469.506 285.159C469.279 285.081 468.79 285.041 468.04 285.041H459.569C459.056 285.041 458.641 284.962 458.325 284.804C458.019 284.636 457.866 284.335 457.866 283.901C457.866 283.595 457.945 283.343 458.103 283.146C458.478 283.244 458.834 283.294 459.169 283.294C459.505 283.294 459.821 283.259 460.117 283.19C460.413 283.121 460.695 282.997 460.961 282.82C461.593 282.415 461.929 281.798 461.968 280.969V264.502H460.043C458.612 264.502 457.674 264.571 457.23 264.709C456.795 264.838 456.464 265.005 456.237 265.213C456.02 265.42 455.843 265.701 455.704 266.057C455.458 266.669 455.265 267.725 455.127 269.226C454.91 269.275 454.712 269.3 454.534 269.3C454.14 269.3 453.888 269.196 453.779 268.989C453.671 268.782 453.597 268.569 453.557 268.352C453.518 268.125 453.488 267.878 453.468 267.612C453.429 267.079 453.409 266.511 453.409 265.909C453.409 264.26 453.537 263.214 453.794 262.769C454.051 262.296 454.564 262.059 455.334 262.059C455.482 262.059 455.699 262.073 455.986 262.103C456.272 262.133 456.687 262.167 457.23 262.207C458.701 262.296 460.463 262.34 462.516 262.34H465.019C467.882 262.34 469.797 262.296 470.764 262.207C471.732 262.108 472.334 262.059 472.571 262.059C472.808 262.059 473.025 262.093 473.222 262.162C473.42 262.231 473.578 262.33 473.696 262.458C473.884 262.676 473.978 262.947 473.978 263.273C473.978 263.767 473.963 264.161 473.933 264.458C473.904 264.754 473.869 265.104 473.83 265.509C473.8 265.914 473.756 266.333 473.696 266.768C473.558 267.794 473.385 268.5 473.178 268.885C472.981 269.162 472.739 269.3 472.452 269.3C472.176 269.3 471.929 269.275 471.712 269.226L471.727 268.293C471.727 267.414 471.677 266.723 471.579 266.22C471.48 265.706 471.273 265.326 470.957 265.08C470.641 264.823 470.187 264.665 469.594 264.606C469.002 264.537 468.212 264.502 467.225 264.502H465.448V281.546C465.448 282.257 466.016 282.751 467.151 283.027C467.427 283.086 467.689 283.141 467.936 283.19C468.193 283.239 468.439 283.294 468.676 283.353C468.913 283.402 469.111 283.466 469.269 283.545C469.585 283.703 469.743 283.97 469.743 284.345C469.743 284.691 469.664 284.962 469.506 285.159ZM482.944 282.405C482.006 281.467 481.271 280.337 480.738 279.014C480.215 277.681 479.953 276.275 479.953 274.794C479.953 273.303 480.101 271.99 480.397 270.855C480.693 269.719 481.103 268.693 481.626 267.775C482.15 266.847 482.772 266.027 483.492 265.316C484.213 264.606 484.998 264.008 485.847 263.525C487.564 262.547 489.425 262.059 491.429 262.059C494.47 262.059 496.948 263.026 498.863 264.961C500.867 266.975 501.869 269.626 501.869 272.913C501.869 275.391 501.311 277.617 500.196 279.592C499.179 281.388 497.777 282.8 495.99 283.827C494.273 284.824 492.54 285.322 490.793 285.322C489.055 285.322 487.545 285.071 486.261 284.567C484.988 284.054 483.882 283.333 482.944 282.405ZM485.432 266.916C484.85 267.735 484.42 268.727 484.144 269.892C483.867 271.057 483.729 272.311 483.729 273.653C483.729 274.986 483.858 276.21 484.114 277.326C484.371 278.432 484.781 279.404 485.343 280.243C486.567 282.069 488.384 282.983 490.793 282.983C493.221 282.983 495.062 282.188 496.316 280.599C497.521 279.049 498.123 276.842 498.123 273.979C498.123 269.586 496.82 266.639 494.213 265.139C493.285 264.616 492.185 264.354 490.911 264.354C489.638 264.354 488.552 264.576 487.653 265.02C486.755 265.465 486.015 266.096 485.432 266.916ZM524.008 285.041C522.685 285.041 522.024 284.676 522.024 283.945C522.024 283.619 522.103 283.358 522.261 283.16C522.547 283.239 522.838 283.279 523.134 283.279C523.431 283.279 523.682 283.269 523.89 283.249C524.097 283.229 524.289 283.146 524.467 282.997C524.832 282.662 525.06 281.916 525.148 280.761L526.674 265.035C526.693 264.788 526.609 264.596 526.422 264.458C526.234 264.319 526.002 264.221 525.726 264.161C525.449 264.102 525.208 264.053 525 264.013C524.803 263.974 524.63 263.915 524.482 263.836C524.176 263.688 524.023 263.436 524.023 263.08C524.023 262.715 524.092 262.444 524.23 262.266C524.418 262.315 524.586 262.34 524.734 262.34H529.117C530.588 262.34 531.491 262.7 531.827 263.421L537.336 276.349L543.022 263.347C543.209 262.913 543.491 262.636 543.866 262.518C544.241 262.399 544.72 262.34 545.302 262.34H548.175C549.508 262.34 550.174 262.69 550.174 263.391C550.174 263.767 550.1 264.038 549.952 264.206C549.557 264.097 549.231 264.043 548.975 264.043C548.728 264.043 548.506 264.063 548.308 264.102C548.111 264.142 547.953 264.216 547.835 264.324C547.588 264.532 547.494 264.946 547.553 265.568L549.152 281.768C549.222 282.459 549.592 282.894 550.263 283.072C550.451 283.121 550.648 283.18 550.855 283.249L551.433 283.442C551.798 283.56 552.02 283.718 552.099 283.916C552.178 284.103 552.218 284.286 552.218 284.463C552.218 284.71 552.144 284.927 551.996 285.115C551.769 285.066 551.537 285.041 551.3 285.041H544.547C543.343 285.041 542.741 284.681 542.741 283.96C542.741 283.842 542.775 283.693 542.844 283.516C542.913 283.328 542.968 283.21 543.007 283.16C543.303 283.239 543.575 283.279 543.822 283.279C544.078 283.279 544.34 283.259 544.606 283.22C544.883 283.18 545.115 283.086 545.302 282.938C545.707 282.603 545.88 281.966 545.821 281.028L544.858 268.323L544.725 265.85L537.913 280.939C537.785 281.018 537.587 281.058 537.321 281.058C537.054 281.058 536.778 280.964 536.491 280.776C536.215 280.579 535.963 280.337 535.736 280.051C535.371 279.587 535.02 278.994 534.685 278.274L529.176 265.361L527.977 281.487C527.937 282.05 528.016 282.43 528.214 282.627C528.46 282.874 528.786 283.052 529.191 283.16C529.596 283.269 529.912 283.353 530.139 283.412C530.366 283.461 530.563 283.531 530.731 283.619C531.096 283.797 531.279 284.093 531.279 284.508C531.279 284.715 531.2 284.918 531.042 285.115C530.864 285.066 530.696 285.041 530.539 285.041H524.008ZM574.112 278.451C574.379 278.224 574.66 278.111 574.956 278.111C575.41 278.111 575.672 278.175 575.741 278.303C576.126 279.073 576.318 280.347 576.318 282.124C576.318 283.358 576.18 284.251 575.904 284.804C575.815 284.962 575.721 285.041 575.622 285.041H559.274C558.099 285.041 557.512 284.691 557.512 283.99C557.512 283.614 557.591 283.328 557.749 283.131C558.085 283.229 558.41 283.279 558.726 283.279C559.042 283.279 559.314 283.254 559.541 283.205C559.768 283.155 559.98 283.052 560.177 282.894C560.651 282.529 560.888 281.912 560.888 281.043V266.042C560.888 265.183 560.543 264.635 559.852 264.398C559.654 264.329 559.447 264.27 559.23 264.221C559.022 264.161 558.82 264.107 558.623 264.058C558.435 263.999 558.267 263.934 558.119 263.865C557.784 263.688 557.616 263.446 557.616 263.14C557.616 262.735 557.695 262.444 557.853 262.266C558.03 262.315 558.208 262.34 558.386 262.34H573.535C574.443 262.34 575.01 262.424 575.237 262.592C575.652 262.888 575.859 263.539 575.859 264.546C575.859 265.514 575.775 266.304 575.608 266.916C575.45 267.528 575.336 267.893 575.267 268.012C575.168 268.189 574.976 268.278 574.69 268.278C574.275 268.278 573.989 268.229 573.831 268.13C573.683 268.021 573.604 267.942 573.594 267.893C573.465 266.481 573.243 265.583 572.927 265.198C572.611 264.803 572.236 264.537 571.802 264.398C571.377 264.25 570.82 264.176 570.129 264.176H566.826C565.78 264.176 565.138 264.28 564.901 264.487C564.674 264.695 564.531 264.936 564.472 265.213C564.413 265.479 564.383 265.825 564.383 266.249V272.558L565.257 272.572C567.438 272.572 569.462 272.38 571.328 271.995C571.466 272.064 571.59 272.262 571.698 272.587C571.807 272.903 571.861 273.219 571.861 273.535C571.861 274.068 571.772 274.532 571.595 274.927C570.943 274.986 570.193 275.016 569.344 275.016C568.495 275.016 566.841 274.878 564.383 274.601V281.28C564.383 282.02 564.58 282.519 564.975 282.775C565.311 282.993 565.913 283.101 566.782 283.101L569.018 283.042C571.18 282.963 572.587 282.662 573.238 282.139C573.604 281.842 573.845 281.452 573.964 280.969C574.082 280.485 574.142 280.001 574.142 279.518C574.142 279.024 574.132 278.669 574.112 278.451ZM565.953 260.563C565.657 260.563 565.41 260.331 565.212 259.867C565.173 259.758 565.153 259.679 565.153 259.63C565.153 259.492 565.188 259.388 565.257 259.319L570.395 256.165C570.612 256.007 570.839 255.928 571.076 255.928C571.313 255.928 571.545 256.007 571.772 256.165C571.999 256.313 572.202 256.501 572.379 256.728C572.764 257.231 572.957 257.725 572.957 258.209C572.957 258.574 572.814 258.806 572.528 258.905L565.953 260.563ZM592.023 285.189L587.803 285.026H583.982C583.469 285.026 583.039 284.942 582.694 284.774C582.348 284.597 582.175 284.38 582.175 284.123C582.175 283.649 582.249 283.318 582.398 283.131C582.753 283.229 583.113 283.279 583.479 283.279C583.844 283.279 584.15 283.254 584.397 283.205C584.653 283.155 584.88 283.052 585.078 282.894C585.532 282.538 585.759 281.921 585.759 281.043V265.953C585.759 265.035 585.186 264.463 584.041 264.235C583.33 264.087 582.866 263.929 582.649 263.762C582.442 263.584 582.338 263.391 582.338 263.184C582.338 262.73 582.417 262.424 582.575 262.266C582.753 262.315 582.916 262.34 583.064 262.34C583.064 262.34 584.56 262.34 587.551 262.34C587.778 262.34 588.079 262.33 588.454 262.31C588.454 262.31 588.874 262.286 589.713 262.236C590.947 262.177 592.21 262.148 593.504 262.148C594.807 262.148 596.07 262.305 597.295 262.621C598.519 262.927 599.575 263.347 600.464 263.88C601.362 264.413 602.107 265.035 602.7 265.746C603.302 266.447 603.786 267.192 604.151 267.982C604.802 269.433 605.128 271.062 605.128 272.869C605.128 276.146 604.279 278.871 602.581 281.043C601.248 282.751 599.289 283.955 596.702 284.656C595.36 285.011 593.8 285.189 592.023 285.189ZM589.254 281.472C589.254 282.213 589.486 282.691 589.95 282.909C590.345 283.086 591.287 283.175 592.778 283.175C594.279 283.175 595.611 282.928 596.776 282.435C597.941 281.941 598.869 281.275 599.56 280.436C600.804 278.925 601.426 276.798 601.426 274.053C601.426 269.344 599.763 266.269 596.436 264.828C595.231 264.305 593.746 264.043 591.978 264.043C590.804 264.043 590.088 264.161 589.831 264.398C589.575 264.625 589.412 264.912 589.343 265.257C589.283 265.593 589.254 266.047 589.254 266.62V281.472ZM620.981 285.159C620.754 285.081 620.265 285.041 619.515 285.041H613.34C612.826 285.041 612.417 284.962 612.111 284.804C611.804 284.636 611.651 284.335 611.651 283.901C611.651 283.585 611.726 283.333 611.874 283.146C612.268 283.244 612.629 283.294 612.955 283.294C613.29 283.294 613.552 283.259 613.739 283.19C613.937 283.121 614.105 282.997 614.243 282.82C614.549 282.445 614.712 281.828 614.732 280.969V265.835C614.732 265.055 614.514 264.566 614.08 264.369C613.942 264.3 613.754 264.24 613.517 264.191C613.28 264.142 613.043 264.092 612.807 264.043C612.579 263.984 612.387 263.915 612.229 263.836C611.913 263.678 611.755 263.411 611.755 263.036C611.755 262.671 611.829 262.399 611.977 262.222C612.204 262.301 612.693 262.34 613.443 262.34H619.47C619.984 262.34 620.393 262.424 620.699 262.592C621.015 262.75 621.173 263.046 621.173 263.48C621.173 263.806 621.094 264.058 620.936 264.235C620.561 264.137 620.151 264.087 619.707 264.087C618.75 264.087 618.256 264.867 618.226 266.427V281.546C618.226 282.326 618.444 282.82 618.878 283.027C619.016 283.086 619.204 283.141 619.441 283.19C619.678 283.239 619.91 283.294 620.137 283.353C620.374 283.402 620.571 283.466 620.729 283.545C621.055 283.713 621.218 283.98 621.218 284.345C621.218 284.691 621.139 284.962 620.981 285.159ZM643.171 268.752C643.211 268.476 643.23 268.071 643.23 267.538C643.23 267.005 643.127 266.521 642.919 266.086C642.712 265.642 642.431 265.297 642.075 265.05C641.453 264.625 640.515 264.413 639.262 264.413C638.018 264.413 636.917 264.64 635.959 265.094C635.012 265.539 634.217 266.165 633.575 266.975C632.282 268.604 631.635 270.82 631.635 273.624C631.635 276.279 632.292 278.397 633.605 279.977C634.967 281.625 636.808 282.45 639.128 282.45C641.409 282.45 643.186 281.951 644.459 280.954C644.844 280.658 645.195 280.337 645.511 279.991C645.807 280.08 646.049 280.342 646.236 280.776C646.296 280.924 646.325 281.122 646.325 281.369C646.325 281.606 646.148 281.961 645.792 282.435C645.447 282.899 644.938 283.348 644.267 283.782C642.668 284.829 640.752 285.352 638.521 285.352C635.323 285.352 632.776 284.38 630.88 282.435C629.005 280.529 628.067 277.977 628.067 274.779C628.067 272.824 628.378 271.062 629 269.492C629.622 267.923 630.471 266.59 631.547 265.494C632.623 264.388 633.876 263.539 635.308 262.947C636.749 262.355 638.146 262.059 639.499 262.059C640.861 262.059 641.952 262.172 642.771 262.399C643.591 262.626 644.272 262.937 644.815 263.332C645.901 264.142 646.444 265.218 646.444 266.56C646.444 267.587 646.064 268.313 645.303 268.737C645.047 268.885 644.77 268.959 644.474 268.959C643.862 268.959 643.428 268.89 643.171 268.752ZM656.003 282.405C655.065 281.467 654.329 280.337 653.796 279.014C653.273 277.681 653.011 276.275 653.011 274.794C653.011 273.303 653.159 271.99 653.456 270.855C653.752 269.719 654.162 268.693 654.685 267.775C655.208 266.847 655.83 266.027 656.551 265.316C657.271 264.606 658.056 264.008 658.905 263.525C660.623 262.547 662.484 262.059 664.488 262.059C667.528 262.059 670.006 263.026 671.922 264.961C673.926 266.975 674.928 269.626 674.928 272.913C674.928 275.391 674.37 277.617 673.254 279.592C672.237 281.388 670.836 282.8 669.049 283.827C667.331 284.824 665.598 285.322 663.851 285.322C662.114 285.322 660.603 285.071 659.32 284.567C658.046 284.054 656.941 283.333 656.003 282.405ZM658.49 266.916C657.908 267.735 657.479 268.727 657.202 269.892C656.926 271.057 656.788 272.311 656.788 273.653C656.788 274.986 656.916 276.21 657.173 277.326C657.429 278.432 657.839 279.404 658.402 280.243C659.626 282.069 661.442 282.983 663.851 282.983C666.28 282.983 668.121 282.188 669.374 280.599C670.579 279.049 671.181 276.842 671.181 273.979C671.181 269.586 669.878 266.639 667.272 265.139C666.344 264.616 665.243 264.354 663.969 264.354C662.696 264.354 661.61 264.576 660.712 265.02C659.813 265.465 659.073 266.096 658.49 266.916ZM712.082 278.451C712.349 278.224 712.63 278.111 712.926 278.111C713.38 278.111 713.642 278.175 713.711 278.303C714.096 279.073 714.288 280.347 714.288 282.124C714.288 283.358 714.15 284.251 713.874 284.804C713.785 284.962 713.691 285.041 713.592 285.041H697.244C696.069 285.041 695.482 284.691 695.482 283.99C695.482 283.614 695.561 283.328 695.719 283.131C696.055 283.229 696.38 283.279 696.696 283.279C697.012 283.279 697.284 283.254 697.511 283.205C697.738 283.155 697.95 283.052 698.147 282.894C698.621 282.529 698.858 281.912 698.858 281.043V266.042C698.858 265.183 698.513 264.635 697.822 264.398C697.624 264.329 697.417 264.27 697.2 264.221C696.992 264.161 696.79 264.107 696.593 264.058C696.405 263.999 696.237 263.934 696.089 263.865C695.753 263.688 695.586 263.446 695.586 263.14C695.586 262.735 695.665 262.444 695.823 262.266C696 262.315 696.178 262.34 696.356 262.34H711.504C712.413 262.34 712.98 262.424 713.207 262.592C713.622 262.888 713.829 263.539 713.829 264.546C713.829 265.514 713.745 266.304 713.578 266.916C713.42 267.528 713.306 267.893 713.237 268.012C713.138 268.189 712.946 268.278 712.66 268.278C712.245 268.278 711.959 268.229 711.801 268.13C711.653 268.021 711.574 267.942 711.564 267.893C711.435 266.481 711.213 265.583 710.897 265.198C710.581 264.803 710.206 264.537 709.772 264.398C709.347 264.25 708.79 264.176 708.099 264.176H704.796C703.75 264.176 703.108 264.28 702.871 264.487C702.644 264.695 702.501 264.936 702.442 265.213C702.383 265.479 702.353 265.825 702.353 266.249V272.558L703.227 272.572C705.408 272.572 707.432 272.38 709.298 271.995C709.436 272.064 709.56 272.262 709.668 272.587C709.777 272.903 709.831 273.219 709.831 273.535C709.831 274.068 709.742 274.532 709.565 274.927C708.913 274.986 708.163 275.016 707.314 275.016C706.465 275.016 704.811 274.878 702.353 274.601V281.28C702.353 282.02 702.55 282.519 702.945 282.775C703.281 282.993 703.883 283.101 704.752 283.101L706.988 283.042C709.15 282.963 710.557 282.662 711.208 282.139C711.574 281.842 711.815 281.452 711.934 280.969C712.052 280.485 712.112 280.001 712.112 279.518C712.112 279.024 712.102 278.669 712.082 278.451ZM744.142 285.189L739.922 285.026H736.102C735.588 285.026 735.159 284.942 734.813 284.774C734.468 284.597 734.295 284.38 734.295 284.123C734.295 283.649 734.369 283.318 734.517 283.131C734.872 283.229 735.233 283.279 735.598 283.279C735.963 283.279 736.269 283.254 736.516 283.205C736.773 283.155 737 283.052 737.197 282.894C737.651 282.538 737.879 281.921 737.879 281.043V265.953C737.879 265.035 737.306 264.463 736.161 264.235C735.45 264.087 734.986 263.929 734.769 263.762C734.561 263.584 734.458 263.391 734.458 263.184C734.458 262.73 734.537 262.424 734.695 262.266C734.872 262.315 735.035 262.34 735.183 262.34C735.183 262.34 736.679 262.34 739.67 262.34C739.897 262.34 740.198 262.33 740.574 262.31C740.574 262.31 740.993 262.286 741.832 262.236C743.066 262.177 744.33 262.148 745.623 262.148C746.926 262.148 748.19 262.305 749.414 262.621C750.638 262.927 751.695 263.347 752.583 263.88C753.481 264.413 754.227 265.035 754.819 265.746C755.421 266.447 755.905 267.192 756.27 267.982C756.922 269.433 757.248 271.062 757.248 272.869C757.248 276.146 756.399 278.871 754.701 281.043C753.368 282.751 751.408 283.955 748.822 284.656C747.479 285.011 745.919 285.189 744.142 285.189ZM741.373 281.472C741.373 282.213 741.605 282.691 742.069 282.909C742.464 283.086 743.407 283.175 744.898 283.175C746.398 283.175 747.731 282.928 748.896 282.435C750.061 281.941 750.989 281.275 751.68 280.436C752.924 278.925 753.546 276.798 753.546 274.053C753.546 269.344 751.882 266.269 748.555 264.828C747.351 264.305 745.865 264.043 744.098 264.043C742.923 264.043 742.207 264.161 741.951 264.398C741.694 264.625 741.531 264.912 741.462 265.257C741.403 265.593 741.373 266.047 741.373 266.62V281.472ZM777.942 283.294C778.357 283.363 778.668 283.397 778.875 283.397C779.083 283.397 779.285 283.378 779.482 283.338C779.69 283.289 779.872 283.215 780.03 283.116C780.386 282.899 780.563 282.558 780.563 282.094C780.563 281.709 780.445 281.28 780.208 280.806L778.816 277.356H769.443L767.784 281.561C767.626 281.946 767.547 282.227 767.547 282.405C767.547 282.573 767.572 282.701 767.621 282.79C767.68 282.869 767.764 282.938 767.873 282.997C767.991 283.057 768.134 283.106 768.302 283.146L768.909 283.308C769.561 283.417 769.981 283.516 770.168 283.605C770.553 283.792 770.746 284.069 770.746 284.434C770.746 284.7 770.672 284.927 770.524 285.115C770.336 285.066 770.163 285.041 770.005 285.041H763.978C762.665 285.041 762.009 284.681 762.009 283.96C762.009 283.624 762.083 283.353 762.231 283.146C762.596 283.244 762.902 283.294 763.149 283.294C763.406 283.294 763.618 283.254 763.786 283.175C763.963 283.096 764.131 282.963 764.289 282.775C764.556 282.45 764.867 281.798 765.222 280.821L772.537 263.11C772.745 262.636 773.332 262.31 774.3 262.133C774.566 262.083 774.848 262.059 775.144 262.059C775.746 262.059 776.116 262.222 776.254 262.547L777.735 266.249C780.588 272.982 782.237 276.911 782.681 278.037L784.014 281.531C784.28 282.292 784.502 282.761 784.68 282.938C784.858 283.116 785.05 283.239 785.258 283.308C785.465 283.378 785.677 283.437 785.894 283.486C786.122 283.526 786.319 283.58 786.487 283.649C786.862 283.817 787.049 284.074 787.049 284.419C787.049 284.686 786.975 284.913 786.827 285.1C786.64 285.051 786.472 285.026 786.324 285.026H779.26C778.757 285.026 778.362 284.967 778.076 284.849C777.799 284.72 777.661 284.528 777.661 284.271C777.661 283.827 777.755 283.501 777.942 283.294ZM777.957 275.253L774.077 265.657L770.272 275.253H777.957ZM818.814 268.589C818.814 266.328 818.009 264.912 816.4 264.339C815.847 264.142 815.201 264.043 814.46 264.043C813.72 264.043 813.083 264.127 812.55 264.295C812.017 264.463 811.573 264.69 811.217 264.976C810.496 265.558 810.136 266.328 810.136 267.286C810.136 268.737 811.202 269.976 813.335 271.003L815.186 271.877C816.084 272.291 816.948 272.716 817.777 273.15C818.616 273.575 819.357 274.063 819.998 274.616C821.41 275.82 822.116 277.311 822.116 279.088C822.116 280.993 821.287 282.529 819.628 283.693C818.078 284.779 816.133 285.322 813.794 285.322C811.938 285.322 810.299 285.031 808.877 284.449C807.831 284.034 807.086 283.447 806.641 282.687C806.414 282.301 806.301 281.833 806.301 281.28C806.301 280.174 806.577 279.142 807.13 278.185C807.318 277.958 807.574 277.844 807.9 277.844C808.532 277.844 808.897 278.032 808.996 278.407C809.124 280.115 809.647 281.359 810.566 282.139C811.494 282.919 812.787 283.308 814.445 283.308C816.351 283.308 817.629 282.687 818.281 281.443C818.508 281.008 818.621 280.5 818.621 279.917C818.621 279.325 818.463 278.797 818.147 278.333C817.831 277.869 817.412 277.439 816.889 277.045C816.089 276.452 815.028 275.88 813.705 275.327C812.392 274.774 811.365 274.29 810.625 273.876C809.894 273.461 809.248 272.977 808.685 272.424C807.461 271.22 806.849 269.734 806.849 267.967C806.849 266.161 807.624 264.714 809.174 263.628C810.664 262.582 812.589 262.059 814.949 262.059C817.94 262.059 819.895 262.676 820.813 263.91C821.149 264.354 821.316 264.936 821.316 265.657C821.316 266.378 821.247 267.005 821.109 267.538C820.981 268.071 820.852 268.416 820.724 268.574C820.507 268.841 820.132 268.974 819.599 268.974C819.075 268.974 818.814 268.846 818.814 268.589ZM843.196 283.294C843.61 283.363 843.921 283.397 844.129 283.397C844.336 283.397 844.538 283.378 844.736 283.338C844.943 283.289 845.126 283.215 845.284 283.116C845.639 282.899 845.817 282.558 845.817 282.094C845.817 281.709 845.698 281.28 845.461 280.806L844.069 277.356H834.696L833.037 281.561C832.879 281.946 832.8 282.227 832.8 282.405C832.8 282.573 832.825 282.701 832.874 282.79C832.934 282.869 833.018 282.938 833.126 282.997C833.245 283.057 833.388 283.106 833.556 283.146L834.163 283.308C834.814 283.417 835.234 283.516 835.421 283.605C835.806 283.792 835.999 284.069 835.999 284.434C835.999 284.7 835.925 284.927 835.777 285.115C835.589 285.066 835.417 285.041 835.259 285.041H829.232C827.919 285.041 827.262 284.681 827.262 283.96C827.262 283.624 827.336 283.353 827.484 283.146C827.85 283.244 828.156 283.294 828.402 283.294C828.659 283.294 828.871 283.254 829.039 283.175C829.217 283.096 829.385 282.963 829.543 282.775C829.809 282.45 830.12 281.798 830.476 280.821L837.791 263.11C837.998 262.636 838.585 262.31 839.553 262.133C839.819 262.083 840.101 262.059 840.397 262.059C840.999 262.059 841.369 262.222 841.508 262.547L842.988 266.249C845.842 272.982 847.49 276.911 847.934 278.037L849.267 281.531C849.534 282.292 849.756 282.761 849.934 282.938C850.111 283.116 850.304 283.239 850.511 283.308C850.718 283.378 850.931 283.437 851.148 283.486C851.375 283.526 851.572 283.58 851.74 283.649C852.115 283.817 852.303 284.074 852.303 284.419C852.303 284.686 852.229 284.913 852.081 285.1C851.893 285.051 851.725 285.026 851.577 285.026H844.514C844.01 285.026 843.615 284.967 843.329 284.849C843.053 284.72 842.914 284.528 842.914 284.271C842.914 283.827 843.008 283.501 843.196 283.294ZM843.211 275.253L839.331 265.657L835.525 275.253H843.211ZM877.988 264.073C877.238 264.073 876.848 264.852 876.818 266.412V275.297C876.818 278.555 876.014 281.043 874.404 282.761C872.825 284.468 870.569 285.322 867.637 285.322C865.149 285.322 863.111 284.695 861.521 283.442C859.507 281.872 858.5 279.266 858.5 275.623V265.435C858.49 265.01 858.441 264.714 858.352 264.546C858.273 264.379 858.086 264.265 857.79 264.206C857.493 264.147 857.227 264.092 856.99 264.043C856.763 263.984 856.57 263.915 856.412 263.836C856.096 263.678 855.939 263.411 855.939 263.036C855.939 262.69 856.017 262.419 856.175 262.222C856.403 262.301 856.891 262.34 857.641 262.34H863.387C864.512 262.34 865.075 262.72 865.075 263.48C865.075 263.816 865.001 264.068 864.853 264.235C864.488 264.137 864.142 264.087 863.816 264.087C863.501 264.087 863.244 264.127 863.046 264.206C862.859 264.275 862.686 264.403 862.528 264.591C862.173 265.015 861.995 265.672 861.995 266.56V274.586C861.995 277.637 862.607 279.829 863.831 281.161C864.779 282.178 866.092 282.687 867.77 282.687C872.015 282.687 874.138 280.041 874.138 274.749V265.835C874.138 265.055 873.921 264.566 873.486 264.369C873.348 264.3 873.156 264.24 872.909 264.191C872.672 264.142 872.435 264.092 872.198 264.043C871.971 263.984 871.778 263.915 871.62 263.836C871.305 263.678 871.147 263.411 871.147 263.036C871.147 262.671 871.226 262.399 871.383 262.222C871.611 262.301 872.099 262.34 872.85 262.34H877.766C878.269 262.34 878.674 262.419 878.98 262.577C879.296 262.735 879.454 263.031 879.454 263.465C879.454 263.801 879.38 264.053 879.232 264.221C878.837 264.122 878.422 264.073 877.988 264.073ZM866.26 260.563C865.964 260.563 865.717 260.331 865.519 259.867C865.48 259.758 865.46 259.679 865.46 259.63C865.46 259.492 865.495 259.388 865.564 259.319L870.702 256.165C870.92 256.007 871.147 255.928 871.383 255.928C871.62 255.928 871.852 256.007 872.079 256.165C872.307 256.313 872.509 256.501 872.687 256.728C873.072 257.231 873.264 257.725 873.264 258.209C873.264 258.574 873.121 258.806 872.835 258.905L866.26 260.563ZM894.166 285.189L889.946 285.026H886.125C885.612 285.026 885.183 284.942 884.837 284.774C884.492 284.597 884.319 284.38 884.319 284.123C884.319 283.649 884.393 283.318 884.541 283.131C884.896 283.229 885.257 283.279 885.622 283.279C885.987 283.279 886.293 283.254 886.54 283.205C886.797 283.155 887.024 283.052 887.221 282.894C887.675 282.538 887.902 281.921 887.902 281.043V265.953C887.902 265.035 887.33 264.463 886.185 264.235C885.474 264.087 885.01 263.929 884.793 263.762C884.585 263.584 884.482 263.391 884.482 263.184C884.482 262.73 884.561 262.424 884.719 262.266C884.896 262.315 885.059 262.34 885.207 262.34C885.207 262.34 886.703 262.34 889.694 262.34C889.921 262.34 890.222 262.33 890.597 262.31C890.597 262.31 891.017 262.286 891.856 262.236C893.09 262.177 894.354 262.148 895.647 262.148C896.95 262.148 898.214 262.305 899.438 262.621C900.662 262.927 901.718 263.347 902.607 263.88C903.505 264.413 904.251 265.035 904.843 265.746C905.445 266.447 905.929 267.192 906.294 267.982C906.946 269.433 907.272 271.062 907.272 272.869C907.272 276.146 906.423 278.871 904.724 281.043C903.392 282.751 901.432 283.955 898.846 284.656C897.503 285.011 895.943 285.189 894.166 285.189ZM891.397 281.472C891.397 282.213 891.629 282.691 892.093 282.909C892.488 283.086 893.431 283.175 894.921 283.175C896.422 283.175 897.755 282.928 898.92 282.435C900.085 281.941 901.013 281.275 901.704 280.436C902.948 278.925 903.569 276.798 903.569 274.053C903.569 269.344 901.906 266.269 898.579 264.828C897.375 264.305 895.889 264.043 894.122 264.043C892.947 264.043 892.231 264.161 891.975 264.398C891.718 264.625 891.555 264.912 891.486 265.257C891.427 265.593 891.397 266.047 891.397 266.62V281.472ZM930.173 278.451C930.439 278.224 930.721 278.111 931.017 278.111C931.471 278.111 931.733 278.175 931.802 278.303C932.187 279.073 932.379 280.347 932.379 282.124C932.379 283.358 932.241 284.251 931.965 284.804C931.876 284.962 931.782 285.041 931.683 285.041H915.335C914.16 285.041 913.573 284.691 913.573 283.99C913.573 283.614 913.652 283.328 913.81 283.131C914.145 283.229 914.471 283.279 914.787 283.279C915.103 283.279 915.374 283.254 915.601 283.205C915.829 283.155 916.041 283.052 916.238 282.894C916.712 282.529 916.949 281.912 916.949 281.043V266.042C916.949 265.183 916.603 264.635 915.912 264.398C915.715 264.329 915.508 264.27 915.29 264.221C915.083 264.161 914.881 264.107 914.683 264.058C914.496 263.999 914.328 263.934 914.18 263.865C913.844 263.688 913.676 263.446 913.676 263.14C913.676 262.735 913.755 262.444 913.913 262.266C914.091 262.315 914.269 262.34 914.446 262.34H929.595C930.503 262.34 931.071 262.424 931.298 262.592C931.713 262.888 931.92 263.539 931.92 264.546C931.92 265.514 931.836 266.304 931.668 266.916C931.51 267.528 931.397 267.893 931.328 268.012C931.229 268.189 931.037 268.278 930.75 268.278C930.336 268.278 930.049 268.229 929.891 268.13C929.743 268.021 929.664 267.942 929.654 267.893C929.526 266.481 929.304 265.583 928.988 265.198C928.672 264.803 928.297 264.537 927.863 264.398C927.438 264.25 926.88 264.176 926.189 264.176H922.887C921.841 264.176 921.199 264.28 920.962 264.487C920.735 264.695 920.592 264.936 920.533 265.213C920.473 265.479 920.444 265.825 920.444 266.249V272.558L921.317 272.572C923.499 272.572 925.523 272.38 927.389 271.995C927.527 272.064 927.65 272.262 927.759 272.587C927.868 272.903 927.922 273.219 927.922 273.535C927.922 274.068 927.833 274.532 927.655 274.927C927.004 274.986 926.253 275.016 925.404 275.016C924.555 275.016 922.902 274.878 920.444 274.601V281.28C920.444 282.02 920.641 282.519 921.036 282.775C921.372 282.993 921.974 283.101 922.843 283.101L925.079 283.042C927.241 282.963 928.647 282.662 929.299 282.139C929.664 281.842 929.906 281.452 930.025 280.969C930.143 280.485 930.202 280.001 930.202 279.518C930.202 279.024 930.192 278.669 930.173 278.451Z" fill="#463100"/>
<defs>
<linearGradient id="paint0_linear_416_136" x1="276.296" y1="136.32" x2="305.114" y2="197.869" gradientUnits="userSpaceOnUse">
<stop stop-opacity="0.71"/>
<stop offset="1" stop-opacity="0"/>
</linearGradient>
<clipPath id="clip0_416_136">
<rect width="261.007" height="253.041" fill="white" transform="translate(36 32)"/>
</clipPath>
</defs>
</svg>
