<svg xmlns="http://www.w3.org/2000/svg" width="31.045" height="31" viewBox="0 0 31.045 31">
  <g id="Grupo_1430" data-name="Grupo 1430" transform="translate(-963 -14)">
    <path id="Caminho_2050" data-name="Caminho 2050" d="M16.912,24.475H13.669l-.058-.023a.751.751,0,0,1-.482-.77c0-1.781,0-3.591,0-5.341v-1.4H11.3a.694.694,0,0,1-.78-.767c0-.958,0-1.832,0-2.671a.693.693,0,0,1,.771-.761h1.837c0-.168,0-.336,0-.5,0-.471-.005-.959.014-1.44a4.5,4.5,0,0,1,1.075-2.867,3.847,3.847,0,0,1,2.534-1.327c.595-.06,1.2-.065,1.781-.069.243,0,.494,0,.739-.01.2-.005.374-.005.542,0a.676.676,0,0,1,.7.714c0,.858,0,1.723,0,2.571a.676.676,0,0,1-.728.71c-.19,0-.38,0-.571.006-.392,0-.8.006-1.193.021-.337.013-.437.13-.486.229a.9.9,0,0,0-.1.363c-.011.456-.009.908-.007,1.386v.216h2.185a.7.7,0,0,1,.793.791q0,1.317,0,2.635a.692.692,0,0,1-.773.773h-2.21v1.364c0,1.753,0,3.565,0,5.347a.792.792,0,0,1-.457.791Zm-3.1-.65h2.94a.271.271,0,0,0,.033-.17c0-1.783,0-3.6,0-5.347V16.293h2.859a.506.506,0,0,0,.114-.01.453.453,0,0,0,.01-.113q0-1.317,0-2.635a.53.53,0,0,0-.011-.129.535.535,0,0,0-.132-.012H16.786v-.325c0-.181,0-.36,0-.538,0-.483,0-.938.008-1.4a1.549,1.549,0,0,1,.165-.635A1.114,1.114,0,0,1,18,9.9c.406-.016.817-.019,1.214-.022q.284,0,.567-.006a.3.3,0,0,0,.081-.01.253.253,0,0,0,0-.054c.005-.845.005-1.707,0-2.564a.225.225,0,0,0-.006-.056.232.232,0,0,0-.069-.01c-.156-.005-.321-.005-.505,0-.251.006-.5.008-.749.01-.569,0-1.156.009-1.721.066a3.161,3.161,0,0,0-2.11,1.109,3.8,3.8,0,0,0-.915,2.463c-.018.468-.016.947-.013,1.411,0,.213,0,.426,0,.638v.52H11.3a.392.392,0,0,0-.111.011.424.424,0,0,0-.011.1c0,.838,0,1.71,0,2.668a.39.39,0,0,0,.01.106.468.468,0,0,0,.12.011q.7,0,1.4,0h1.079v2.048c0,1.751,0,3.561,0,5.342,0,.088.011.122.032.142" transform="translate(963 14)" fill="#fff"/>
    <rect id="Retângulo_428" data-name="Retângulo 428" width="30.045" height="30" rx="5" transform="translate(963.5 14.5)" fill="none" stroke="#fff" stroke-linecap="round" stroke-linejoin="round" stroke-width="1"/>
  </g>
</svg>
