<svg xmlns="http://www.w3.org/2000/svg" width="31.045" height="31" viewBox="0 0 31.045 31">
  <g id="Grupo_1429" data-name="Grupo 1429" transform="translate(-1014.159 -14.5)">
    <path id="Caminho_2048" data-name="Caminho 2048" d="M66.682,20.195a4.7,4.7,0,1,1,4.7-4.695,4.7,4.7,0,0,1-4.7,4.695m0-8.318A3.624,3.624,0,1,0,70.305,15.5a3.628,3.628,0,0,0-3.623-3.624" transform="translate(963 14.5)" fill="#fff"/>
    <path id="Caminho_2049" data-name="Caminho 2049" d="M71.511,9.551a1.074,1.074,0,1,1-1.073,1.073,1.073,1.073,0,0,1,1.073-1.073" transform="translate(963 14.5)" fill="#fff"/>
    <g id="Grupo_1428" data-name="Grupo 1428" transform="translate(0.001 0)">
      <path id="Caminho_2047" data-name="Caminho 2047" d="M70.646,24.279H62.717A4.82,4.82,0,0,1,57.9,19.464V11.536a4.82,4.82,0,0,1,4.815-4.815h7.928a4.82,4.82,0,0,1,4.815,4.815v7.928a4.818,4.818,0,0,1-4.814,4.815M62.717,7.793a3.747,3.747,0,0,0-3.743,3.743v7.928a3.747,3.747,0,0,0,3.743,3.743h7.928a3.747,3.747,0,0,0,3.743-3.743V11.536a3.747,3.747,0,0,0-3.743-3.743Z" transform="translate(963 14.5)" fill="#fff"/>
      <rect id="Retângulo_427" data-name="Retângulo 427" width="30.045" height="30" rx="5" transform="translate(1014.658 15)" fill="none" stroke="#fff" stroke-linecap="round" stroke-width="1"/>
    </g>
  </g>
</svg>
