<svg xmlns="http://www.w3.org/2000/svg" width="31.045" height="31" viewBox="0 0 31.045 31">
  <g id="Grupo_1426" data-name="Grupo 1426" transform="translate(-1065.259 -14.5)">
    <path id="Caminho_2044" data-name="Caminho 2044" d="M119.3,24.874h-4.675l0-.392c-.02-1.531-.014-3.086-.009-4.59.009-2.595.017-5.277-.1-7.915l-.019-.415h4.141l.055.472c.01.09.021.178.03.267l.045.442c0,.01,0,.021,0,.031a4.819,4.819,0,0,1,3.086-1.469,5.081,5.081,0,0,1,2.549.356,4.4,4.4,0,0,1,2.4,2.557,7.3,7.3,0,0,1,.479,2.7c.006,1.807,0,3.643,0,5.419q0,1.026,0,2.052c0,.025,0,.049,0,.077l-.018.409H122.6V17.6a4.154,4.154,0,0,0-.171-1.326,1.488,1.488,0,0,0-2.393-.714,1.832,1.832,0,0,0-.731,1.47c0,.168,0,.337,0,.5Zm-3.888-.8H118.5V17.532c0-.173,0-.346,0-.519a2.617,2.617,0,0,1,1.03-2.076,2.282,2.282,0,0,1,3.646,1.087,5.062,5.062,0,0,1,.21,1.574v6.479h3.1q0-.873,0-1.744c0-1.775,0-3.611,0-5.416a6.535,6.535,0,0,0-.423-2.409,3.584,3.584,0,0,0-1.97-2.117,4.308,4.308,0,0,0-2.154-.3,4,4,0,0,0-3.019,1.749.592.592,0,0,1-.166.155l-.012.008-.433.346-.193-.539a.668.668,0,0,1-.056-.2c-.029-.265-.056-.53-.083-.8l-.045-.441,0-.025h-2.6c.1,2.52.09,5.068.081,7.536-.006,1.374-.011,2.789,0,4.187" transform="translate(963 14.5)" fill="#fff"/>
    <path id="Caminho_2045" data-name="Caminho 2045" d="M113.068,24.876h-4.673V11.562h4.673Zm-3.877-.8h3.082V12.358h-3.082Z" transform="translate(963 14.5)" fill="#fff"/>
    <path id="Caminho_2046" data-name="Caminho 2046" d="M110.874,10.822h-.04A2.363,2.363,0,0,1,108.5,7.457,2.3,2.3,0,0,1,110.3,6.163a2.677,2.677,0,0,1,1.7.252,2.335,2.335,0,0,1,1.2,2.285,2.246,2.246,0,0,1-1.619,1.986,4.12,4.12,0,0,1-.541.11l-.118.019Zm-.085-3.9a2.381,2.381,0,0,0-.369.03,1.492,1.492,0,0,0-1.2.843,1.634,1.634,0,0,0,.077,1.493,1.611,1.611,0,0,0,1.512.74l.1-.016a3.476,3.476,0,0,0,.438-.086,1.45,1.45,0,0,0,1.05-1.3,1.534,1.534,0,0,0-.78-1.5,1.745,1.745,0,0,0-.832-.2" transform="translate(963 14.5)" fill="#fff"/>
    <rect id="Retângulo_426" data-name="Retângulo 426" width="30.045" height="30" rx="5" transform="translate(1065.759 15)" fill="none" stroke="#fff" stroke-linecap="round" stroke-linejoin="round" stroke-width="1"/>
  </g>
</svg>
