<svg id="Grupo_875" data-name="Grupo 875" xmlns="http://www.w3.org/2000/svg" xmlns:xlink="http://www.w3.org/1999/xlink" width="50" height="33.714" viewBox="0 0 50 33.714">
  <defs>
    <clipPath id="clip-path">
      <rect id="Retângulo_423" data-name="Retângulo 423" width="50" height="33.714" fill="#eacbb3"/>
    </clipPath>
  </defs>
  <g id="Grupo_874" data-name="Grupo 874" clip-path="url(#clip-path)">
    <path id="Caminho_2042" data-name="Caminho 2042" d="M45.358,0H4.641A4.647,4.647,0,0,0,0,4.642v24.43a4.647,4.647,0,0,0,4.641,4.642H45.358A4.648,4.648,0,0,0,50,29.072V4.642A4.647,4.647,0,0,0,45.358,0M47.7,4.642v24.43a2.314,2.314,0,0,1-2.34,2.338H4.641A2.313,2.313,0,0,1,2.3,29.072V4.642A2.313,2.313,0,0,1,4.641,2.3H45.358A2.314,2.314,0,0,1,47.7,4.642" fill="#eacbb3"/>
    <path id="Caminho_2043" data-name="Caminho 2043" d="M44.98,8.895a1.152,1.152,0,0,0-1.3-.645,1.087,1.087,0,0,0-.569.318L27.749,22.728a2.361,2.361,0,0,1-3.263,0L9.171,8.575a1.192,1.192,0,0,0-.834-.321,1.152,1.152,0,0,0-.73,2.006l8.7,8.026L7.616,26.012a1.147,1.147,0,0,0-.384.8,1.168,1.168,0,0,0,.292.831,1.152,1.152,0,0,0,.8.384l.057,0a1.165,1.165,0,0,0,.773-.294l8.853-7.867,4.925,4.552a4.662,4.662,0,0,0,6.371,0l4.94-4.571,8.87,7.884a1.182,1.182,0,0,0,.837.294,1.156,1.156,0,0,0,.7-2.017l-8.691-7.725L44.616,10.3a1.158,1.158,0,0,0,.364-1.405" transform="translate(-1.136 -1.292)" fill="#eacbb3"/>
  </g>
</svg>
