<svg id="Grupo_540" data-name="Grupo 540" xmlns="http://www.w3.org/2000/svg" xmlns:xlink="http://www.w3.org/1999/xlink" width="20" height="19.999" viewBox="0 0 20 19.999">
  <defs>
    <clipPath id="clip-path">
      <rect id="Retângulo_278" data-name="Retângulo 278" width="20" height="19.999" fill="#fff"/>
    </clipPath>
  </defs>
  <g id="Grupo_539" data-name="Grupo 539" clip-path="url(#clip-path)">
    <path id="Caminho_66" data-name="Caminho 66" d="M19.394,14.583l-3.74-3.06a1.849,1.849,0,0,0-2.446.119L11.751,13.1a.742.742,0,0,1-.828.079c-.024-.012-.081-.042-.166-.09-.149-.085-.319-.19-.506-.316A11.573,11.573,0,0,1,7.227,9.75c-.126-.187-.231-.356-.316-.5-.048-.085-.078-.141-.118-.217a.716.716,0,0,1,.1-.781L8.356,6.79a1.848,1.848,0,0,0,.119-2.446L5.416.6a1.6,1.6,0,0,0-2.4-.123L.712,2.788c-2.058,2.058.647,8.655,4.245,12.253s10.2,6.3,12.253,4.245l2.307-2.307h0a1.6,1.6,0,0,0-.123-2.4m-.848,1.426L16.24,18.316c-1.29,1.291-7.2-1.132-10.312-4.245S.392,5.049,1.683,3.758L3.99,1.452a.229.229,0,0,1,.364.022l3.06,3.74a.477.477,0,0,1-.028.607L5.928,7.277h0A2.083,2.083,0,0,0,5.6,9.708a7.788,7.788,0,0,0,.488.81,12.608,12.608,0,0,0,1.538,1.855A12.6,12.6,0,0,0,9.483,13.91a7.76,7.76,0,0,0,.815.491,2.093,2.093,0,0,0,2.423-.331l1.457-1.457a.478.478,0,0,1,.607-.028l3.74,3.06a.228.228,0,0,1,.022.364" transform="translate(0 0)" fill="#fff"/>
  </g>
</svg>
